<?xml version="1.0" encoding="UTF-8"?>
<svg version="1.1" xmlns="http://www.w3.org/2000/svg" width="354" height="352">
<path d="M0 0 C4.95 0 9.9 0 15 0 C15 1.65 15 3.3 15 5 C14.34 5 13.68 5 13 5 C13 4.34 13 3.68 13 3 C12.01 3.66 11.02 4.32 10 5 C11.98 5.33 13.96 5.66 16 6 C15.67 6.66 15.34 7.32 15 8 C15.56283691 8.17539307 16.12567383 8.35078613 16.70556641 8.53149414 C32.64020354 13.54374448 47.38767107 18.59089155 60 30 C60.74636719 30.65355469 61.49273437 31.30710937 62.26171875 31.98046875 C79.18902983 47.72611763 87.63683054 69.74851795 89.00390625 92.5703125 C88.9620666 129.30552723 64.7640025 162.0893285 41 188 C40.0839783 189.02024373 39.16864215 190.04110328 38.25390625 191.0625 C28.45994138 201.92801463 17.92601833 211.81659741 6.50390625 220.9609375 C4.13936529 222.88650752 1.87870733 224.8842131 -0.375 226.9375 C-16.16527474 241.05978797 -34.38563017 252.32668915 -52 264 C-54.29250776 265.51957653 -56.58403872 267.04058933 -58.875 268.5625 C-59.84179688 269.20316406 -60.80859375 269.84382813 -61.8046875 270.50390625 C-63.8816859 271.81964966 -63.8816859 271.81964966 -65 273 C-69.06744484 273.41363846 -70.93114166 272.72494558 -74.125 270.25 C-78.1544145 267.27121802 -82.26308077 264.55428259 -86.52416992 261.92651367 C-97.45653739 255.18129271 -107.79493294 247.79480196 -118 240 C-118.65371582 239.50081055 -119.30743164 239.00162109 -119.98095703 238.48730469 C-131.35098099 229.76126485 -142.27345598 220.50315 -153 211 C-154.02673828 210.11248047 -154.02673828 210.11248047 -155.07421875 209.20703125 C-160.98782927 204.01630691 -166.59955156 198.53747884 -172.1875 193 C-172.94788574 192.25258545 -173.70827148 191.5051709 -174.49169922 190.73510742 C-179.45072774 185.78419073 -183.79567582 180.59865279 -188 175 C-188.80824219 173.99195313 -189.61648437 172.98390625 -190.44921875 171.9453125 C-207.57238547 150.36952477 -219.6066628 127.24619822 -224.32421875 100.01171875 C-224.84620983 96.84168933 -224.84620983 96.84168933 -227 94 C-227.22705078 91.82348633 -227.22705078 91.82348633 -227.1953125 89.33203125 C-227.18564453 87.99301758 -227.18564453 87.99301758 -227.17578125 86.62695312 C-227.15902344 85.69818359 -227.14226562 84.76941406 -227.125 83.8125 C-227.11597656 82.87212891 -227.10695312 81.93175781 -227.09765625 80.96289062 C-227.07409056 78.64167032 -227.04119116 76.32096356 -227 74 C-226.34 74 -225.68 74 -225 74 C-224.67 76.97 -224.34 79.94 -224 83 C-223.82984375 82.18917969 -223.6596875 81.37835938 -223.484375 80.54296875 C-221.85431729 73.09499228 -219.72993594 66.10945019 -217 59 C-216.32318977 57.00340982 -215.65038501 55.00535378 -215 53 C-215.99 53 -216.98 53 -218 53 C-218 51.35 -218 49.7 -218 48 C-217.34 48 -216.68 48 -216 48 C-216 48.66 -216 49.32 -216 50 C-214.68 50 -213.36 50 -212 50 C-211.67 49.34 -211.34 48.68 -211 48 C-211.66 47.67 -212.32 47.34 -213 47 C-211.68 46.34 -210.36 45.68 -209 45 C-209.33 44.34 -209.66 43.68 -210 43 C-210.99 43.495 -210.99 43.495 -212 44 C-212 43.01 -212 42.02 -212 41 C-210.515 40.505 -210.515 40.505 -209 40 C-209 38.68 -209 37.36 -209 36 C-208.175 36.33 -207.35 36.66 -206.5 37 C-203.05358872 37.36222129 -203.05358872 37.36222129 -201.1015625 35.49609375 C-199.73879909 34.07677297 -198.39333583 32.64070663 -197.0625 31.19140625 C-194.02714944 27.96634628 -190.651518 25.48411819 -187 23 C-186.28585938 22.50757812 -185.57171875 22.01515625 -184.8359375 21.5078125 C-172.49151568 13.539674 -155.82844943 7.4973407 -141 8 C-141 7.01 -141 6.02 -141 5 C-141.92232422 5.05220703 -141.92232422 5.05220703 -142.86328125 5.10546875 C-143.67152344 5.13253906 -144.47976562 5.15960938 -145.3125 5.1875 C-146.51326172 5.23970703 -146.51326172 5.23970703 -147.73828125 5.29296875 C-150.47851584 4.93801608 -151.29171079 4.10633718 -153 2 C-145.24506486 1.90071918 -137.68931285 1.93940512 -130 3 C-130 3.99 -130 4.98 -130 6 C-128.35 6 -126.7 6 -125 6 C-125.33 6.66 -125.66 7.32 -126 8 C-124.67162109 8.31130859 -124.67162109 8.31130859 -123.31640625 8.62890625 C-105.44701014 13.07301205 -86.10788707 19.83776518 -73.40625 33.73828125 C-71.91470533 35.27603913 -71.91470533 35.27603913 -68.9375 35.75 C-64.90623875 34.72074181 -63.00077693 32.85788279 -60 30 C-60.4021875 29.195625 -60.4021875 29.195625 -60.8125 28.375 C-61 26 -61 26 -58.6875 22.75 C-57.800625 21.8425 -56.91375 20.935 -56 20 C-55.34 20 -54.68 20 -54 20 C-54 19.34 -54 18.68 -54 18 C-52.02 18 -50.04 18 -48 18 C-48.33 18.99 -48.66 19.98 -49 21 C-50.32 21 -51.64 21 -53 21 C-53.66 22.32 -54.32 23.64 -55 25 C-55.99 25 -56.98 25 -58 25 C-58 25.66 -58 26.32 -58 27 C-54.25563985 25.51785744 -50.90120906 24.00307093 -47.5625 21.75 C-35.38970504 13.94995663 -21.33574282 9.37843681 -7 8 C-7 7.34 -7 6.68 -7 6 C-16.18417545 6.52847625 -16.18417545 6.52847625 -25 9 C-25.66 9 -26.32 9 -27 9 C-27 7.68 -27 6.36 -27 5 C-22.71 5 -18.42 5 -14 5 C-14 4.34 -14 3.68 -14 3 C-11.51245214 1.75622607 -9.77344699 1.86693765 -7 1.875 C-6.113125 1.87242188 -5.22625 1.86984375 -4.3125 1.8671875 C-2 2 -2 2 0 3 C0 2.01 0 1.02 0 0 Z M-207 39 C-207.33 40.32 -207.66 41.64 -208 43 C-207.01 42.01 -206.02 41.02 -205 40 C-205.66 39.67 -206.32 39.34 -207 39 Z " fill="#65C8A7" transform="translate(242,36)"/>
<path d="M0 0 C7.75493514 -0.09928082 15.31068715 -0.06059488 23 1 C23 1.99 23 2.98 23 4 C24.65 4 26.3 4 28 4 C27.67 4.66 27.34 5.32 27 6 C27.88558594 6.20753906 28.77117187 6.41507813 29.68359375 6.62890625 C47.55298986 11.07301205 66.89211293 17.83776518 79.59375 31.73828125 C81.08529467 33.27603913 81.08529467 33.27603913 84.0625 33.75 C88.09376125 32.72074181 89.99922307 30.85788279 93 28 C92.5978125 27.195625 92.5978125 27.195625 92.1875 26.375 C92 24 92 24 94.3125 20.75 C95.199375 19.8425 96.08625 18.935 97 18 C97.66 18 98.32 18 99 18 C99 17.34 99 16.68 99 16 C100.98 16 102.96 16 105 16 C104.67 16.99 104.34 17.98 104 19 C102.68 19 101.36 19 100 19 C99.34 20.32 98.68 21.64 98 23 C97.01 23 96.02 23 95 23 C95 23.66 95 24.32 95 25 C99.04109053 23.40040167 102.4847078 21.72481195 106.0625 19.25 C109.07122014 17.28524124 109.73184308 16.98563445 113.5 17.1875 C114.325 17.455625 115.15 17.72375 116 18 C113.84059668 21.23910497 113.04453195 21.63102973 109.625 23.125 C101.80418046 26.86539195 94.87986873 32.2109893 88.625 38.1875 C87.75875 38.785625 86.8925 39.38375 86 40 C82.625 39.3125 82.625 39.3125 80 38 C80 37.34 80 36.68 80 36 C79.45988281 35.76667969 78.91976562 35.53335938 78.36328125 35.29296875 C75.93923276 33.96675379 73.91735504 32.37839487 71.79052734 30.6237793 C64.43105096 24.60371416 56.90026404 20.32112098 48 17 C47.31260742 16.7431543 46.62521484 16.48630859 45.91699219 16.22167969 C24.6842846 8.68624497 0.03659249 9.30586042 -20.38330078 18.8371582 C-26.70201442 21.93529565 -32.75738456 25.26024768 -38 30 C-38.85851563 30.76699219 -39.71703125 31.53398438 -40.6015625 32.32421875 C-55.58301181 46.45960825 -63.68582938 63.55815955 -66 84 C-66.495 84.495 -66.495 84.495 -67 85 C-67.12682509 86.70476521 -67.17585534 88.41556342 -67.1875 90.125 C-67.20167969 91.05570312 -67.21585938 91.98640625 -67.23046875 92.9453125 C-67.10324196 96.0906457 -67.10324196 96.0906457 -65.99609375 99.33984375 C-64.8574847 103.52367387 -64.77272671 107.13808813 -64.875 111.4375 C-64.88402344 112.16904297 -64.89304687 112.90058594 -64.90234375 113.65429688 C-64.92563847 115.43634298 -64.9614981 117.21821759 -65 119 C-65.66 118.67 -66.32 118.34 -67 118 C-67.65429688 115.82275391 -67.65429688 115.82275391 -68.21875 112.9765625 C-68.42886719 111.955625 -68.63898438 110.9346875 -68.85546875 109.8828125 C-69.06816406 108.80773437 -69.28085938 107.73265625 -69.5 106.625 C-69.92110459 104.51182062 -70.34794282 102.39977353 -70.78125 100.2890625 C-71.0606543 98.87681396 -71.0606543 98.87681396 -71.34570312 97.43603516 C-71.92268475 94.76943439 -71.92268475 94.76943439 -74 92 C-74.22705078 89.82348633 -74.22705078 89.82348633 -74.1953125 87.33203125 C-74.18564453 85.99301758 -74.18564453 85.99301758 -74.17578125 84.62695312 C-74.15902344 83.69818359 -74.14226562 82.76941406 -74.125 81.8125 C-74.11597656 80.87212891 -74.10695313 79.93175781 -74.09765625 78.96289062 C-74.07409056 76.64167032 -74.04119116 74.32096356 -74 72 C-73.34 72 -72.68 72 -72 72 C-71.67 74.97 -71.34 77.94 -71 81 C-70.82984375 80.18917969 -70.6596875 79.37835938 -70.484375 78.54296875 C-68.85431729 71.09499228 -66.72993594 64.10945019 -64 57 C-63.32318977 55.00340982 -62.65038501 53.00535378 -62 51 C-62.99 51 -63.98 51 -65 51 C-65 49.35 -65 47.7 -65 46 C-64.34 46 -63.68 46 -63 46 C-63 46.66 -63 47.32 -63 48 C-61.68 48 -60.36 48 -59 48 C-58.67 47.34 -58.34 46.68 -58 46 C-58.66 45.67 -59.32 45.34 -60 45 C-58.68 44.34 -57.36 43.68 -56 43 C-56.33 42.34 -56.66 41.68 -57 41 C-57.99 41.495 -57.99 41.495 -59 42 C-59 41.01 -59 40.02 -59 39 C-57.515 38.505 -57.515 38.505 -56 38 C-56 36.68 -56 35.36 -56 34 C-55.175 34.33 -54.35 34.66 -53.5 35 C-50.05358872 35.36222129 -50.05358872 35.36222129 -48.1015625 33.49609375 C-46.73879909 32.07677297 -45.39333583 30.64070663 -44.0625 29.19140625 C-41.02714944 25.96634628 -37.651518 23.48411819 -34 21 C-33.28585938 20.50757812 -32.57171875 20.01515625 -31.8359375 19.5078125 C-19.49151568 11.539674 -2.82844943 5.4973407 12 6 C12 5.01 12 4.02 12 3 C11.07767578 3.05220703 11.07767578 3.05220703 10.13671875 3.10546875 C8.92435547 3.14607422 8.92435547 3.14607422 7.6875 3.1875 C6.48673828 3.23970703 6.48673828 3.23970703 5.26171875 3.29296875 C2.52148416 2.93801608 1.70828921 2.10633718 0 0 Z M-54 37 C-54.33 38.32 -54.66 39.64 -55 41 C-54.01 40.01 -53.02 39.02 -52 38 C-52.66 37.67 -53.32 37.34 -54 37 Z " fill="#6089FA" transform="translate(89,38)"/>
<path d="M0 0 C18.42739293 8.18995241 32.91989376 25.01745979 40.4375 43.5625 C50.54561919 70.94579465 46.55864762 93.81918204 35.07177734 119.67871094 C26.39793093 138.46480017 12.88873167 154.85666024 -1 170 C-1.9160217 171.02024373 -2.83135785 172.04110328 -3.74609375 173.0625 C-13.54005862 183.92801463 -24.07398167 193.81659741 -35.49609375 202.9609375 C-37.86063471 204.88650752 -40.12129267 206.8842131 -42.375 208.9375 C-58.16527474 223.05978797 -76.38563017 234.32668915 -94 246 C-96.29250776 247.51957653 -98.58403872 249.04058933 -100.875 250.5625 C-101.84179688 251.20316406 -102.80859375 251.84382812 -103.8046875 252.50390625 C-105.8816859 253.81964966 -105.8816859 253.81964966 -107 255 C-111.44774245 255.53465894 -113.58568062 254.30140101 -117.125 251.6875 C-117.97320312 251.07261719 -118.82140625 250.45773437 -119.6953125 249.82421875 C-121.61341789 248.30598957 -123.32623908 246.77768725 -125 245 C-119.67401131 244.33425141 -117.12179371 245.91422929 -113.02734375 249.00390625 C-110.23920356 250.37380172 -108.92022543 249.9659892 -106 249 C-103.56877443 247.67609944 -103.56877443 247.67609944 -101.0625 245.875 C-100.01835937 245.15699219 -98.97421875 244.43898438 -97.8984375 243.69921875 C-97.29612305 243.28075684 -96.69380859 242.86229492 -96.07324219 242.43115234 C-93.6771626 240.77714639 -91.26520641 239.14779703 -88.8515625 237.51953125 C-72.94864168 226.77577986 -57.59517827 215.68805955 -42.79248047 203.47216797 C-41.2057868 202.16901313 -39.60579286 200.88208945 -38.00390625 199.59765625 C-28.30372194 191.81216725 -18.88087138 183.65406744 -11 174 C-8.81919105 171.76327287 -6.60260742 169.57560378 -4.34375 167.41796875 C-0.69154082 163.86987957 2.48381393 160.23418939 5.4453125 156.08984375 C6.7088316 154.39139471 8.04910883 152.75025124 9.41015625 151.12890625 C27.7946642 129.22447108 41 101.91294219 41 73 C41 71.83082031 41 70.66164063 41 69.45703125 C40.48978612 55.34642852 35.72132002 41.18890855 27.6875 29.5625 C26 27 26 27 26 24 C25.4328125 23.76152344 24.865625 23.52304688 24.28125 23.27734375 C21.51836033 21.73031477 19.68958559 19.84581785 17.5 17.5625 C15.31065126 15.28692691 13.30715124 13.21511105 10.71875 11.40234375 C10.1515625 10.93957031 9.584375 10.47679688 9 10 C9 9.01 9 8.02 9 7 C7.88625 6.5978125 7.88625 6.5978125 6.75 6.1875 C4.10938051 5.04723249 2.14447156 3.90619694 0 2 C0 1.34 0 0.68 0 0 Z " fill="#F5E12C" transform="translate(284,54)"/>
<path d="M0 0 C2.37890625 0.36328125 2.37890625 0.36328125 4.19140625 1.55078125 C5.80148336 4.00826737 5.66055995 5.45712712 5.37890625 8.36328125 C-1.5903472 21.04687434 -13.57593245 26.01489415 -26.62109375 30.36328125 C-40.88107049 31.15142906 -54.36075202 29.13595259 -65.80078125 20.01171875 C-69.80203495 16.38826583 -75.33055443 11.34130929 -75.87109375 5.80078125 C-75.62109375 3.36328125 -75.62109375 3.36328125 -73.62109375 1.36328125 C-70.80859375 0.92578125 -70.80859375 0.92578125 -67.62109375 1.36328125 C-65.05859375 3.55078125 -65.05859375 3.55078125 -62.62109375 6.36328125 C-55.89987879 13.43824437 -50.03660613 17.89619898 -39.97265625 18.62890625 C-28.48793773 18.58075229 -19.55394308 18.20134087 -10.62109375 10.36328125 C-8.46475244 7.76013047 -6.46308084 5.1215446 -4.54296875 2.33984375 C-2.62109375 0.36328125 -2.62109375 0.36328125 0 0 Z " fill="#F6FCF9" transform="translate(209.62109375,175.63671875)"/>
<path d="M0 0 C3.07839012 0.37541343 3.6035903 0.99647003 5.5625 3.3125 C6.5546875 5.1796875 6.5546875 5.1796875 7.4375 7.1875 C9.94449971 12.40244215 13.7046314 16.17839122 18.5625 19.3125 C26.78698732 21.81785853 36.2257973 20.60840143 43.75 16.625 C48.65155019 12.59483651 52.5783031 8.44547222 54.5625 2.3125 C55.5625 1.3125 55.5625 1.3125 58.5 1.125 C61.5625 1.3125 61.5625 1.3125 63.5625 3.3125 C64.65022439 8.75112195 62.23769768 12.4313066 59.37890625 16.85546875 C53.60556274 24.66500223 45.78829032 29.3985506 36.5625 32.3125 C25.82666687 33.85459884 16.21091635 31.70622678 7.25 25.625 C3.00682975 22.2095529 0.33207087 17.94315193 -2.4375 13.3125 C-3.0975 12.3225 -3.7575 11.3325 -4.4375 10.3125 C-4.80917184 7.55229004 -4.61600636 5.12397524 -4.4375 2.3125 C-2.4375 0.3125 -2.4375 0.3125 0 0 Z " fill="#F4FAFD" transform="translate(79.4375,125.6875)"/>
<path d="M0 0 C3.1875 0.625 3.1875 0.625 4.4453125 2.1328125 C5.2654979 3.5178938 6.0634943 4.91625733 6.84375 6.32421875 C10.2523067 12.16038124 14.65581456 17.44777152 21.1875 19.625 C30.23654094 21.42565233 37.50626281 20.35020071 45.234375 15.25390625 C48.20607388 12.77550938 50.39516374 9.8418861 52.64453125 6.7109375 C54.05580389 4.80303981 55.38300483 3.16412824 57.1875 1.625 C59.75 1.3125 59.75 1.3125 62.1875 1.625 C64.1875 3.625 64.1875 3.625 64.6875 6.1875 C63.67261504 13.16483409 58.4286047 19.13262454 53.1875 23.625 C45.88773251 28.79051344 39.10705236 32.14855924 30.0625 31.875 C29.37285156 31.86984375 28.68320313 31.8646875 27.97265625 31.859375 C24.26820522 31.80271036 20.79014273 31.49412004 17.1875 30.625 C17.1875 29.965 17.1875 29.305 17.1875 28.625 C15.95 28.563125 15.95 28.563125 14.6875 28.5 C7.02144617 26.58348654 2.54314366 21.34152541 -1.5859375 14.87109375 C-3.81988837 10.78026016 -5.32252645 7.34274468 -4.8125 2.625 C-2.8125 0.625 -2.8125 0.625 0 0 Z " fill="#F7FCF8" transform="translate(210.8125,126.375)"/>
<path d="M0 0 C0.99 0.33 1.98 0.66 3 1 C1.92967485 4.21097544 1.37218796 4.78860486 -1.125 6.875 C-1.84945312 7.48859375 -2.57390625 8.1021875 -3.3203125 8.734375 C-4.20460938 9.48203125 -5.08890625 10.2296875 -6 11 C-7.10328939 11.96156383 -8.20472245 12.92526011 -9.3046875 13.890625 C-29.19162681 31.3235799 -49.96411734 46.41525153 -72 61 C-74.91814128 62.93528887 -77.83443859 64.87332763 -80.75 66.8125 C-81.37575928 67.22693359 -82.00151855 67.64136719 -82.64624023 68.06835938 C-85.46033446 69.85975097 -85.46033446 69.85975097 -88 72 C-92.44774245 72.53465894 -94.58568062 71.30140101 -98.125 68.6875 C-98.97320312 68.07261719 -99.82140625 67.45773437 -100.6953125 66.82421875 C-102.61341789 65.30598957 -104.32623908 63.77768725 -106 62 C-100.67401131 61.33425141 -98.12179371 62.91422929 -94.02734375 66.00390625 C-91.23920356 67.37380172 -89.92022543 66.9659892 -87 66 C-84.56877443 64.67609944 -84.56877443 64.67609944 -82.0625 62.875 C-81.01835937 62.15699219 -79.97421875 61.43898438 -78.8984375 60.69921875 C-78.29612305 60.28075684 -77.69380859 59.86229492 -77.07324219 59.43115234 C-74.6771626 57.77714639 -72.26520641 56.14779703 -69.8515625 54.51953125 C-53.95230322 43.77825354 -38.60123219 32.69327692 -23.80126953 20.48095703 C-22.18660699 19.15342342 -20.56079943 17.83947266 -18.93359375 16.52734375 C-12.39196503 11.25123638 -6.16290865 5.70992891 0 0 Z " fill="#AAE84A" transform="translate(265,237)"/>
<path d="M0 0 C2.50184675 3.0022161 4.02918294 6.05940812 5.75 9.5625 C8.36921364 14.25006091 12.89590912 17.01910728 17.953125 18.6171875 C24.92180082 19.92048947 31.74559865 19.45748929 38 16 C42.43897169 12.51223653 44.87033943 8.07428 47.5703125 3.20703125 C49 1 49 1 52 -1 C54.375 -1.4375 54.375 -1.4375 57 -1 C59.875 1 59.875 1 62 4 C62.42691548 12.53830966 57.36537088 18.57811672 51.875 24.6875 C44.41667899 31.84548593 35.05479111 35.14627716 24.9375 35.125 C23.09478516 35.12886719 23.09478516 35.12886719 21.21484375 35.1328125 C18 35 18 35 15 34 C15 33.34 15 32.68 15 32 C16.0415625 32.0928125 17.083125 32.185625 18.15625 32.28125 C30.71006378 33.04870629 40.7826315 30.19289355 50.44921875 21.8984375 C54.51677463 17.48125941 57.78919199 12.79320616 58.25 6.6875 C58.29626079 4.0834033 58.29626079 4.0834033 57 3 C55.00041636 2.95919217 52.99954746 2.95745644 51 3 C50.67 3.804375 50.34 4.60875 50 5.4375 C47.0799601 11.22248472 42.3796589 17.29123165 36.375 20 C28.96274919 22.19622246 21.70318969 23.17267674 14.25 20.8125 C7.01416108 16.77712829 2.50659896 10.34715973 -1 3 C-2.0595877 1.71677453 -2.0595877 1.71677453 -4.5 1.875 C-6.9404123 1.71677453 -6.9404123 1.71677453 -8 3 C-8.80758591 9.46068732 -7.4696317 12.74733454 -3.64453125 17.9609375 C1.22667315 24.00076814 6.62768052 28.39800489 14 31 C14 31.66 14 32.32 14 33 C4.31920205 30.59696505 -2.34383411 25.86684172 -8 17.625 C-10.7330143 12.98270702 -12.95467786 8.48939772 -12 3 C-8.52904802 -1.55562447 -5.28439163 -1.72943726 0 0 Z " fill="#49BCE2" transform="translate(84,125)"/>
<path d="M0 0 C0.495 0.99 0.495 0.99 1 2 C0.45472656 2.29132812 -0.09054688 2.58265625 -0.65234375 2.8828125 C-9.98184538 7.9542339 -17.67837381 13.27657725 -25 21 C-26.22976562 22.18529297 -26.22976562 22.18529297 -27.484375 23.39453125 C-42.14200291 38.57564587 -47.58458764 58.89582281 -47.4152832 79.44677734 C-47.23603555 85.69898176 -46.40439918 91.38484728 -44.65625 97.40625 C-43.98891259 100.04382167 -43.88225227 102.29180218 -44 105 C-44.66 104.67 -45.32 104.34 -46 104 C-46.65429688 101.82275391 -46.65429688 101.82275391 -47.21875 98.9765625 C-47.42886719 97.955625 -47.63898437 96.9346875 -47.85546875 95.8828125 C-48.06816406 94.80773437 -48.28085937 93.73265625 -48.5 92.625 C-48.92110459 90.51182062 -49.34794282 88.39977353 -49.78125 86.2890625 C-50.0606543 84.87681396 -50.0606543 84.87681396 -50.34570312 83.43603516 C-50.92268475 80.76943439 -50.92268475 80.76943439 -53 78 C-53.22705078 75.82348633 -53.22705078 75.82348633 -53.1953125 73.33203125 C-53.18564453 71.99301758 -53.18564453 71.99301758 -53.17578125 70.62695312 C-53.15902344 69.69818359 -53.14226563 68.76941406 -53.125 67.8125 C-53.11597656 66.87212891 -53.10695313 65.93175781 -53.09765625 64.96289062 C-53.07409056 62.64167032 -53.04119116 60.32096356 -53 58 C-52.34 58 -51.68 58 -51 58 C-50.67 60.97 -50.34 63.94 -50 67 C-49.82984375 66.18917969 -49.6596875 65.37835938 -49.484375 64.54296875 C-47.85431729 57.09499228 -45.72993594 50.10945019 -43 43 C-42.32318977 41.00340982 -41.65038501 39.00535378 -41 37 C-41.99 37 -42.98 37 -44 37 C-44 35.35 -44 33.7 -44 32 C-43.34 32 -42.68 32 -42 32 C-42 32.66 -42 33.32 -42 34 C-40.68 34 -39.36 34 -38 34 C-37.67 33.34 -37.34 32.68 -37 32 C-37.66 31.67 -38.32 31.34 -39 31 C-37.68 30.34 -36.36 29.68 -35 29 C-35.33 28.34 -35.66 27.68 -36 27 C-36.66 27.33 -37.32 27.66 -38 28 C-38 27.01 -38 26.02 -38 25 C-37.01 24.67 -36.02 24.34 -35 24 C-35 22.68 -35 21.36 -35 20 C-34.175 20.33 -33.35 20.66 -32.5 21 C-29.05358872 21.36222129 -29.05358872 21.36222129 -27.1015625 19.49609375 C-25.73879909 18.07677297 -24.39333583 16.64070663 -23.0625 15.19140625 C-17.02926468 8.78109372 -8.35249056 2.78416352 0 0 Z M-33 23 C-33.33 24.32 -33.66 25.64 -34 27 C-33.01 26.01 -32.02 25.02 -31 24 C-31.66 23.67 -32.32 23.34 -33 23 Z " fill="#F3F6FB" transform="translate(68,52)"/>
<path d="M0 0 C4.95 0 9.9 0 15 0 C15 1.65 15 3.3 15 5 C14.34 5 13.68 5 13 5 C13 4.34 13 3.68 13 3 C12.01 3.66 11.02 4.32 10 5 C11.98 5.33 13.96 5.66 16 6 C16 7.33333333 16 8.66666667 16 10 C15.37657715 10.01981934 14.7531543 10.03963867 14.11083984 10.06005859 C-11.3128773 10.31701513 -11.3128773 10.31701513 -35.1484375 18.1875 C-37 19 -37 19 -40 18 C-34.12216663 14.84338579 -28.41958702 12.77092056 -22 11 C-20.80375 10.62875 -19.6075 10.2575 -18.375 9.875 C-14.56420326 8.88701566 -10.91231336 8.41182246 -7 8 C-7 7.34 -7 6.68 -7 6 C-16.18417545 6.52847625 -16.18417545 6.52847625 -25 9 C-25.66 9 -26.32 9 -27 9 C-27 7.68 -27 6.36 -27 5 C-22.71 5 -18.42 5 -14 5 C-14 4.34 -14 3.68 -14 3 C-11.51245214 1.75622607 -9.77344699 1.86693765 -7 1.875 C-6.113125 1.87242188 -5.22625 1.86984375 -4.3125 1.8671875 C-2 2 -2 2 0 3 C0 2.01 0 1.02 0 0 Z " fill="#FDFEFE" transform="translate(242,36)"/>
<path d="M0 0 C1.98 0 3.96 0 6 0 C5.67 0.99 5.34 1.98 5 3 C3.68 3 2.36 3 1 3 C0.34 4.32 -0.32 5.64 -1 7 C-1.99 7 -2.98 7 -4 7 C-4 7.66 -4 8.32 -4 9 C0.04109053 7.40040167 3.4847078 5.72481195 7.0625 3.25 C10.07122014 1.28524124 10.73184308 0.98563445 14.5 1.1875 C15.325 1.455625 16.15 1.72375 17 2 C14.84059668 5.23910497 14.04453195 5.63102973 10.625 7.125 C2.80418046 10.86539195 -4.12013127 16.2109893 -10.375 22.1875 C-11.674375 23.0846875 -11.674375 23.0846875 -13 24 C-16.375 23.3125 -16.375 23.3125 -19 22 C-19 21.34 -19 20.68 -19 20 C-19.79857422 19.63841797 -19.79857422 19.63841797 -20.61328125 19.26953125 C-23.66776271 17.64480707 -26.38623241 15.7176513 -29.1875 13.6875 C-30.25355469 12.92824219 -31.31960937 12.16898438 -32.41796875 11.38671875 C-35.18455354 8.82940664 -35.77144128 7.68959075 -36 4 C-29.59902677 6.72634045 -25.37054567 10.21354374 -20.4921875 15.171875 C-17.38123059 17.45389355 -15.77982254 17.54868392 -12 17 C-10.07152146 15.98843307 -10.07152146 15.98843307 -8.625 14.5 C-7.75875 13.675 -6.8925 12.85 -6 12 C-6.268125 11.46375 -6.53625 10.9275 -6.8125 10.375 C-7 8 -7 8 -4.6875 4.75 C-3.800625 3.8425 -2.91375 2.935 -2 2 C-1.34 2 -0.68 2 0 2 C0 1.34 0 0.68 0 0 Z " fill="#40C6EB" transform="translate(188,54)"/>
<path d="M0 0 C2.38137706 2.96627669 4.01362117 5.93550717 5.625 9.375 C12.27605789 22.89113496 21.12589706 35.7898061 31.2109375 46.95703125 C33.95520218 50.0907658 36.47225682 53.39953793 39.0078125 56.703125 C41.13698737 59.15793838 43.44867337 60.99743383 46 63 C46.9729819 64.07303145 47.91460673 65.17589191 48.8125 66.3125 C53.38749831 71.783632 58.18568521 76.60578129 65 79 C67.8125 81 67.8125 81 70 83 C70 83.66 70 84.32 70 85 C70.556875 85.226875 71.11375 85.45375 71.6875 85.6875 C74.68041199 87.38617978 76.73527237 89.42072687 79 92 C79 92.99 79 93.98 79 95 C80.98 95.99 80.98 95.99 83 97 C83 97.99 83 98.98 83 100 C82.38253906 99.43152344 81.76507813 98.86304688 81.12890625 98.27734375 C77.12928884 94.6308128 73.15645779 91.04559835 68.8125 87.8125 C53.23170499 75.89455856 37.49170067 60.88804136 26 45 C25.27167969 44.08863281 24.54335938 43.17726562 23.79296875 42.23828125 C18.68933332 35.83261599 14.0755247 29.22980415 9.6875 22.3125 C9.19612549 21.54115723 8.70475098 20.76981445 8.19848633 19.97509766 C1.04193925 8.5221902 1.04193925 8.5221902 -1 3 C-0.67 2.01 -0.34 1.02 0 0 Z " fill="#D3DFE8" transform="translate(28,166)"/>
<path d="M0 0 C0.66 0 1.32 0 2 0 C2.25652344 0.86238281 2.51304688 1.72476563 2.77734375 2.61328125 C9.2538674 23.26401491 19.32299392 41.25525424 33 58 C34.04048118 59.30068798 35.08083273 60.60147968 36.12109375 61.90234375 C45.11623119 73.07028037 54.42958516 83.61753449 65.671875 92.59765625 C67 94 67 94 67 97 C62.81625666 93.4914429 58.81435287 89.91473058 55 86 C52.61891108 83.55938386 50.33015794 81.25263317 47.62109375 79.1796875 C44.863906 76.88682496 42.78917855 74.49367065 40.5625 71.6875 C38.11657907 68.63009883 35.67829703 65.6005467 33.0625 62.6875 C21.76663497 49.5505962 13.0822186 34.24528293 5 19 C4.34 19 3.68 19 3 19 C0.6969113 12.43345544 -0.33693273 6.96327638 0 0 Z " fill="#3C95F1" transform="translate(23,148)"/>
<path d="M0 0 C5.50282375 5.50282375 5.55297691 18.04255338 6.00390625 25.5703125 C5.97263262 53.02856297 -8.35155465 79.86452012 -25 101 C-25.99 101.495 -25.99 101.495 -27 102 C-26.39535714 97.89635831 -24.1982896 95.19192691 -21.8125 91.875 C-20.98509529 90.69924013 -20.15958166 89.52214727 -19.3359375 88.34375 C-18.93342773 87.76882812 -18.53091797 87.19390625 -18.11621094 86.6015625 C-9.8839157 74.78969531 -3.73353782 60.87284492 -0.47265625 46.8359375 C0 45 0 45 1 44 C1.10038875 41.69446821 1.13081571 39.38584048 1.1328125 37.078125 C1.13376923 36.38112488 1.13472595 35.68412476 1.13571167 34.96600342 C1.13639368 33.48644928 1.13453793 32.00689218 1.13037109 30.52734375 C1.12505511 28.27336793 1.13029859 26.01959432 1.13671875 23.765625 C1.13605734 22.32812456 1.13477489 20.89062425 1.1328125 19.453125 C1.13168457 18.14504883 1.13055664 16.83697266 1.12939453 15.48925781 C1.0185714 12.50079711 0.63374553 9.90586374 0 7 C-0.03824623 4.66698014 -0.04574284 2.33288492 0 0 Z " fill="#FCFCF7" transform="translate(325,103)"/>
<path d="M0 0 C18.17688731 8.07861658 32.46433689 24.57215534 40.125 42.75 C42.18233218 48.57549849 42.5524019 53.87447672 42 60 C40 59 40 59 38.88671875 55.75390625 C38.48244958 54.35807476 38.08299858 52.96084187 37.6875 51.5625 C35.32694724 43.62702476 32.42010577 36.41144708 27.6875 29.5625 C26 27 26 27 26 24 C25.14921875 23.64228516 25.14921875 23.64228516 24.28125 23.27734375 C21.51836033 21.73031477 19.68958559 19.84581785 17.5 17.5625 C15.31065126 15.28692691 13.30715124 13.21511105 10.71875 11.40234375 C10.1515625 10.93957031 9.584375 10.47679688 9 10 C9 9.01 9 8.02 9 7 C8.2575 6.731875 7.515 6.46375 6.75 6.1875 C4.10938051 5.04723249 2.14447156 3.90619694 0 2 C0 1.34 0 0.68 0 0 Z " fill="#7DE186" transform="translate(284,54)"/>
<path d="M0 0 C2.6875 0.3125 2.6875 0.3125 5 1.8125 C6.87014346 4.58308291 7.44541238 6.61696545 7.2578125 9.96875 C5.08544609 18.8962832 -1.72843241 25.63160837 -9.3125 30.3125 C-18.66657099 35.54025848 -27.77992501 36.97082032 -38.3125 35.3125 C-37.9825 34.6525 -37.6525 33.9925 -37.3125 33.3125 C-35.62491574 33.22122186 -33.93540205 33.14358469 -32.24536133 33.13769531 C-21.57696227 33.07382004 -12.66686518 30.20769723 -4.625 22.85546875 C-0.54605808 18.37001066 3.35719539 13.95493686 4.125 7.8125 C3.94597486 5.37943138 3.94597486 5.37943138 2.6875 4.3125 C0.35452567 4.27157063 -1.97955225 4.27008277 -4.3125 4.3125 C-4.69535156 5.40884766 -4.69535156 5.40884766 -5.0859375 6.52734375 C-8.05962902 13.27970699 -13.66663724 18.79128326 -20.4140625 21.73828125 C-23.10130937 22.55109049 -25.53513513 22.59023649 -28.3125 22.3125 C-28.3125 21.6525 -28.3125 20.9925 -28.3125 20.3125 C-27.63703125 20.13074219 -26.9615625 19.94898438 -26.265625 19.76171875 C-25.37359375 19.51035156 -24.4815625 19.25898438 -23.5625 19 C-22.23992187 18.63455078 -22.23992187 18.63455078 -20.890625 18.26171875 C-18.25049305 17.28967017 -16.51773478 16.02395395 -14.3125 14.3125 C-13.6525 14.3125 -12.9925 14.3125 -12.3125 14.3125 C-12.3125 13.6525 -12.3125 12.9925 -12.3125 12.3125 C-11.6525 12.3125 -10.9925 12.3125 -10.3125 12.3125 C-10.085625 11.425625 -9.85875 10.53875 -9.625 9.625 C-8.13480195 5.86402397 -6.29678732 3.99070657 -3.3125 1.3125 C-2.3125 0.3125 -2.3125 0.3125 0 0 Z " fill="#96E15E" transform="translate(270.3125,124.6875)"/>
<path d="M0 0 C7.75493514 -0.09928082 15.31068715 -0.06059488 23 1 C23 1.99 23 2.98 23 4 C24.65 4 26.3 4 28 4 C27.67 4.66 27.34 5.32 27 6 C28.32837891 6.31130859 28.32837891 6.31130859 29.68359375 6.62890625 C37.11159022 8.47624356 44.17425751 10.69096924 51.25 13.625 C51.97630615 13.92607666 52.7026123 14.22715332 53.45092773 14.53735352 C56.50613579 15.83465186 59.23062127 17.15374751 62 19 C61.67 19.66 61.34 20.32 61 21 C60.46375 20.69707031 59.9275 20.39414062 59.375 20.08203125 C40.73040409 10.11575877 21.78634722 8.63931859 1 9 C1 8.34 1 7.68 1 7 C6.445 6.505 6.445 6.505 12 6 C12 5.01 12 4.02 12 3 C11.38511719 3.03480469 10.77023438 3.06960937 10.13671875 3.10546875 C8.92435547 3.14607422 8.92435547 3.14607422 7.6875 3.1875 C6.48673828 3.23970703 6.48673828 3.23970703 5.26171875 3.29296875 C2.52148416 2.93801608 1.70828921 2.10633718 0 0 Z " fill="#F5F8FB" transform="translate(89,38)"/>
<path d="M0 0 C0 0.66 0 1.32 0 2 C-2.15627238 3.59044204 -4.31036678 5.05600628 -6.5625 6.5 C-7.94543513 7.40345816 -9.32824413 8.30710939 -10.7109375 9.2109375 C-11.4234668 9.67338867 -12.13599609 10.13583984 -12.87011719 10.61230469 C-16.16064869 12.7562044 -19.42341165 14.94114415 -22.6875 17.125 C-23.92300388 17.94947836 -25.158679 18.77370018 -26.39453125 19.59765625 C-26.99217285 19.9961377 -27.58981445 20.39461914 -28.20556641 20.80517578 C-29.99377238 21.99585334 -31.78372518 23.18385954 -33.57421875 24.37109375 C-34.66347656 25.09425781 -35.75273437 25.81742187 -36.875 26.5625 C-37.84179688 27.20316406 -38.80859375 27.84382813 -39.8046875 28.50390625 C-41.8816859 29.81964966 -41.8816859 29.81964966 -43 31 C-47.44774245 31.53465894 -49.58568062 30.30140101 -53.125 27.6875 C-53.97320312 27.07261719 -54.82140625 26.45773437 -55.6953125 25.82421875 C-57.61341789 24.30598957 -59.32623908 22.77768725 -61 21 C-55.67401131 20.33425141 -53.12179371 21.91422929 -49.02734375 25.00390625 C-46.25166038 26.36768132 -44.9041338 25.95607496 -42 25 C-39.75157397 23.72012283 -39.75157397 23.72012283 -37.625 22.125 C-34.93642246 20.25449293 -32.65946784 18.85495852 -29.625 17.5625 C-25.18593849 15.64911142 -21.37067113 13.10073677 -17.35546875 10.42578125 C-15 9 -15 9 -13 9 C-13 8.34 -13 7.68 -13 7 C-10.6640625 5.2734375 -10.6640625 5.2734375 -7.625 3.375 C-6.62726563 2.74335938 -5.62953125 2.11171875 -4.6015625 1.4609375 C-2 0 -2 0 0 0 Z " fill="#85DF64" transform="translate(220,278)"/>
<path d="M0 0 C1.03382813 0.38285156 2.06765625 0.76570313 3.1328125 1.16015625 C5.44701834 2.05940894 7.7298407 2.99578836 10 4 C10 4.66 10 5.32 10 6 C5.97304649 5.08157201 2.40636331 4.18060592 -1.375 2.5 C-8.00026239 -0.24148789 -14.84098566 -1.45695836 -22 -1 C-22.33 -0.67 -22.66 -0.34 -23 0 C-25.11172864 0.09579414 -27.22397637 0.18488197 -29.3371582 0.23999023 C-42.55855671 0.60001181 -54.34726612 3.34985814 -67 7 C-63.4934446 1.39420241 -58.11902071 0.57887576 -52 -1 C-47.35857783 -1.99040448 -42.7224577 -2.57838935 -38 -3 C-37.13342773 -3.07911621 -36.26685547 -3.15823242 -35.37402344 -3.23974609 C-22.76133404 -4.30484645 -12.01032696 -4.47817815 0 0 Z " fill="#4EDADA" transform="translate(273,49)"/>
<path d="M0 0 C0.66 0.33 1.32 0.66 2 1 C3.28317892 4.84953676 3.06643637 7.94738135 3 12 C2.34 12 1.68 12 1 12 C1 12.66 1 13.32 1 14 C1.99 14 2.98 14 4 14 C4.66 16.64 5.32 19.28 6 22 C5.34 22 4.68 22 4 22 C4 22.66 4 23.32 4 24 C4.99 23.67 5.98 23.34 7 23 C9.21854707 27.62197306 10.38281159 30.76824163 10 36 C9.34 36 8.68 36 8 36 C8 34.35 8 32.7 8 31 C7.67 31.66 7.34 32.32 7 33 C6.01 33 5.02 33 4 33 C2.875 29.25 2.875 29.25 4 27 C3.34 27 2.68 27 2 27 C2 25.68 2 24.36 2 23 C1.01 23 0.02 23 -1 23 C-1.84454356 19.62182575 -2.10844919 17.32534757 -1 14 C-1.99 14 -2.98 14 -4 14 C-4 12.02 -4 10.04 -4 8 C-3.34 8 -2.68 8 -2 8 C-2 7.34 -2 6.68 -2 6 C-2.66 6 -3.32 6 -4 6 C-3.34 4.68 -2.68 3.36 -2 2 C-1.34 2 -0.68 2 0 2 C0 1.34 0 0.68 0 0 Z M1 15 C1 16.98 1 18.96 1 21 C1.66 21 2.32 21 3 21 C3 19.02 3 17.04 3 15 C2.34 15 1.68 15 1 15 Z " fill="#FFFFFF" transform="translate(16,138)"/>
<path d="M0 0 C0.33 0.66 0.66 1.32 1 2 C1.83789062 1.84015625 2.67578125 1.6803125 3.5390625 1.515625 C21.99231481 -1.23361801 41.29480137 2.8218482 57.75 11.375 C58.8225 11.91125 59.895 12.4475 61 13 C61.66 12.67 62.32 12.34 63 12 C63.495 14.475 63.495 14.475 64 17 C62.59814453 16.32904297 62.59814453 16.32904297 61.16796875 15.64453125 C38.4171313 5.03257332 16.94802857 3.04012399 -8 6 C-5.08235 4.0549 -3.37462715 3.54723683 0 3 C0 2.01 0 1.02 0 0 Z " fill="#5296F3" transform="translate(89,45)"/>
<path d="M0 0 C2.1875 2.625 2.1875 2.625 4 6 C4.72690566 7.25131618 5.45606064 8.50132851 6.1875 9.75 C7.15447552 11.48388714 8.11214796 13.22429591 9 15 C3.8784494 13.17087479 1.88660532 8.77321063 -0.4375 4.125 C-0.953125 3.42375 -1.46875 2.7225 -2 2 C-4.58517587 1.49940084 -4.58517587 1.49940084 -7 2 C-8.38645369 3.18180682 -8.38645369 3.18180682 -8.4375 6.5 C-8.36470071 13.25820104 -3.78695827 17.98967195 0.5 22.8125 C4.64918491 26.44303679 8.79088304 29.16148813 14 31 C14 31.66 14 32.32 14 33 C4.31920205 30.59696505 -2.34383411 25.86684172 -8 17.625 C-10.7330143 12.98270702 -12.95467786 8.48939772 -12 3 C-8.52904802 -1.55562447 -5.28439163 -1.72943726 0 0 Z " fill="#49AEED" transform="translate(84,125)"/>
<path d="M0 0 C1.98 0 3.96 0 6 0 C5.67 0.99 5.34 1.98 5 3 C3.68 3 2.36 3 1 3 C0.34 4.32 -0.32 5.64 -1 7 C-1.99 7 -2.98 7 -4 7 C-4 7.66 -4 8.32 -4 9 C0.82960882 7.08827984 4.93686861 4.85993945 9.203125 1.890625 C11 1 11 1 14 2 C12 4 12 4 9.7734375 4.86328125 C1.08908742 8.42264163 -6.72767773 15.14420589 -13 22 C-18.74934003 20.1399194 -22.89025289 16.31523446 -27 12 C-27.66 11.34 -28.32 10.68 -29 10 C-25.15237036 10.22633116 -23.53979617 11.28452936 -21.0625 14.0625 C-18.86910927 16.38491372 -18.237973 16.94546452 -15 17.6875 C-10.88323544 16.74407479 -9.04250908 14.89762769 -6 12 C-6.268125 11.46375 -6.53625 10.9275 -6.8125 10.375 C-7 8 -7 8 -4.6875 4.75 C-3.800625 3.8425 -2.91375 2.935 -2 2 C-1.34 2 -0.68 2 0 2 C0 1.34 0 0.68 0 0 Z " fill="#FBFDFE" transform="translate(188,54)"/>
<path d="M0 0 C0.99 0.33 1.98 0.66 3 1 C3.4688666 4.12577733 3.42258876 6.27911329 1.8046875 9.0390625 C-0.83457983 12.58019003 -3.58973561 16.17771223 -7 19 C-7.99 19 -8.98 19 -10 19 C-10.495 20.485 -10.495 20.485 -11 22 C-14 24 -14 24 -18 24 C-18 24.66 -18 25.32 -18 26 C-27.54901575 30.05109759 -35.83849055 30.4642314 -46 30 C-46 29.34 -46 28.68 -46 28 C-44.61941406 27.97873047 -44.61941406 27.97873047 -43.2109375 27.95703125 C-28.59111467 27.40618253 -15.28514006 23.5538473 -4.83203125 12.76171875 C-1.8823776 9.25863707 -0.12835058 7.04514041 0.4375 2.4375 C0.293125 1.633125 0.14875 0.82875 0 0 Z " fill="#7ADA88" transform="translate(214,178)"/>
<path d="M0 0 C0 2 0 2 -1.22265625 3.26953125 C-2.13337891 4.03330078 -2.13337891 4.03330078 -3.0625 4.8125 C-4.16271484 5.74642578 -4.16271484 5.74642578 -5.28515625 6.69921875 C-6.62900391 7.83810547 -6.62900391 7.83810547 -8 9 C-9.10448064 9.96299339 -10.20722875 10.92797608 -11.30859375 11.89453125 C-19.8221469 19.35437564 -28.49713627 26.59026278 -37.33691406 33.66064453 C-38.85088884 34.87991429 -40.34461636 36.12421781 -41.8359375 37.37109375 C-44 39 -44 39 -46 39 C-44.62343052 35.77075758 -43.18323203 34.08488251 -40.3671875 32.01171875 C-39.64273438 31.46966797 -38.91828125 30.92761719 -38.171875 30.36914062 C-37.41390625 29.81419922 -36.6559375 29.25925781 -35.875 28.6875 C-30.57056096 24.76500692 -25.48728485 20.77142534 -20.63330078 16.29614258 C-19 15 -19 15 -17 15 C-17 14.34 -17 13.68 -17 13 C-15.30096977 11.48259024 -13.53927277 10.034872 -11.75 8.625 C-8.94686688 6.40770687 -6.26298803 4.2694248 -3.765625 1.7109375 C-2 0 -2 0 0 0 Z " fill="#F0FAE2" transform="translate(267,239)"/>
<path d="M0 0 C4.0727636 2.97652955 6.96576008 6.35473947 9.9375 10.375 C17.67172321 20.52205366 26.73826776 29.73599054 36.7421875 37.66796875 C38 39 38 39 38 42 C33.81625666 38.4914429 29.81435287 34.91473058 26 31 C23.61891108 28.55938386 21.33015794 26.25263317 18.62109375 24.1796875 C15.863906 21.88682496 13.78917855 19.49367065 11.5625 16.6875 C8.9424606 13.40698322 6.3053746 10.18559172 3.5 7.0625 C1.22902438 4.28055487 0.62877438 3.30821063 0 0 Z " fill="#42B3DF" transform="translate(52,203)"/>
<path d="M0 0 C2.625 2.1875 2.625 2.1875 5 5 C5.78375 5.86625 6.5675 6.7325 7.375 7.625 C7.91125 8.40875 8.4475 9.1925 9 10 C8.67 10.99 8.34 11.98 8 13 C7.59007812 12.43410156 7.18015625 11.86820313 6.7578125 11.28515625 C6.21898437 10.55167969 5.68015625 9.81820312 5.125 9.0625 C4.59132812 8.33160156 4.05765625 7.60070312 3.5078125 6.84765625 C2.11987896 4.88901765 2.11987896 4.88901765 0 4 C-3.04173894 3.83329727 -3.04173894 3.83329727 -6 4 C-7.2410312 5.03605059 -7.2410312 5.03605059 -7.28125 7.2734375 C-6.92539831 10.72322198 -5.75020313 12.02655115 -3.5 14.625 C0 18.69444444 0 18.69444444 0 22 C-5.15015642 18.13738268 -8.92782584 14.97776239 -10 8.4375 C-10.22031759 5.21334019 -10.16777633 4.27515318 -8.4375 1.4375 C-5.25482397 -0.43946279 -3.64050628 -0.66866442 0 0 Z " fill="#55CDC3" transform="translate(142,174)"/>
<path d="M0 0 C2.6875 0.3125 2.6875 0.3125 5.0625 2 C6.6875 4.3125 6.6875 4.3125 6.4375 7.0625 C6.19 7.805 5.9425 8.5475 5.6875 9.3125 C5.378125 8.673125 5.06875 8.03375 4.75 7.375 C3.8529837 5.37639179 3.8529837 5.37639179 2.6875 4.3125 C0.35452567 4.27157063 -1.97955225 4.27008277 -4.3125 4.3125 C-4.69535156 5.40884766 -4.69535156 5.40884766 -5.0859375 6.52734375 C-8.05962902 13.27970699 -13.66663724 18.79128326 -20.4140625 21.73828125 C-23.10130937 22.55109049 -25.53513513 22.59023649 -28.3125 22.3125 C-28.3125 21.6525 -28.3125 20.9925 -28.3125 20.3125 C-27.63703125 20.13074219 -26.9615625 19.94898438 -26.265625 19.76171875 C-25.37359375 19.51035156 -24.4815625 19.25898438 -23.5625 19 C-22.68078125 18.75636719 -21.7990625 18.51273438 -20.890625 18.26171875 C-18.25049305 17.28967017 -16.51773478 16.02395395 -14.3125 14.3125 C-13.6525 14.3125 -12.9925 14.3125 -12.3125 14.3125 C-12.3125 13.6525 -12.3125 12.9925 -12.3125 12.3125 C-11.6525 12.3125 -10.9925 12.3125 -10.3125 12.3125 C-10.085625 11.425625 -9.85875 10.53875 -9.625 9.625 C-8.13480195 5.86402397 -6.29678732 3.99070657 -3.3125 1.3125 C-2.3125 0.3125 -2.3125 0.3125 0 0 Z " fill="#78DE77" transform="translate(270.3125,124.6875)"/>
<path d="M0 0 C0.66 0.33 1.32 0.66 2 1 C2.07471341 5.41077344 2.12886513 9.82120184 2.16479492 14.23242188 C2.17978888 15.72988307 2.20019105 17.22730105 2.22631836 18.72460938 C2.48309179 33.82892867 2.48309179 33.82892867 -1 41 C-1.57393666 42.66276298 -2.1390867 44.32864519 -2.6875 46 C-2.93886719 46.763125 -3.19023437 47.52625 -3.44921875 48.3125 C-3.63097656 48.869375 -3.81273437 49.42625 -4 50 C-4.33 50 -4.66 50 -5 50 C-4.57876048 44.9451257 -3.87019208 40.32340443 -2.5 35.4375 C0.49149903 23.96765495 0.18148587 11.77641667 0 0 Z " fill="#DAE12A" transform="translate(325,114)"/>
<path d="M0 0 C3.43927579 1.2419607 6.25207819 2.55740284 9 5 C9 5.66 9 6.32 9 7 C9.54398438 6.75894531 10.08796875 6.51789063 10.6484375 6.26953125 C14.23296636 5.85867994 15.79898624 7.56608536 18.625 9.6875 C19.58664063 10.39261719 20.54828125 11.09773438 21.5390625 11.82421875 C23.89170712 13.90425535 24.72630019 15.22680813 26 18 C29.03201925 20.24407254 29.03201925 20.24407254 32 22 C31.67 22.66 31.34 23.32 31 24 C23.89672641 19.14869173 16.84560737 14.22775904 9.875 9.1875 C9.23618896 8.73205811 8.59737793 8.27661621 7.93920898 7.80737305 C4.7572814 5.49010433 2.13014772 3.33515829 0 0 Z " fill="#9DD9B7" transform="translate(117,269)"/>
<path d="M0 0 C3.18678372 2.92352767 5.21723295 5.81612841 7.25 9.625 C7.77078125 10.58664063 8.2915625 11.54828125 8.828125 12.5390625 C10 15 10 15 10 17 C10.99 17 11.98 17 13 17 C15.95671348 23.52940894 16.35368021 28.87399867 16 36 C14 35 14 35 12.88671875 31.75390625 C12.48244958 30.35807476 12.08299858 28.96084187 11.6875 27.5625 C9.32694724 19.62702476 6.42010577 12.41144708 1.6875 5.5625 C0 3 0 3 0 0 Z " fill="#C0E275" transform="translate(310,78)"/>
<path d="M0 0 C2.94956528 1.36944102 5.52468811 2.87830409 8 5 C8 5.66 8 6.32 8 7 C8.556875 7.226875 9.11375 7.45375 9.6875 7.6875 C12.68041199 9.38617978 14.73527237 11.42072687 17 14 C17 14.99 17 15.98 17 17 C18.32 17.66 19.64 18.32 21 19 C21 19.99 21 20.98 21 22 C20.38253906 21.43152344 19.76507813 20.86304688 19.12890625 20.27734375 C14.19374902 15.7778625 9.22594664 11.5205507 3.8125 7.60546875 C1.83999875 5.85827476 0.9511496 4.44227475 0 2 C0 1.34 0 0.68 0 0 Z " fill="#85D7D0" transform="translate(90,244)"/>
<path d="M0 0 C0.66 0 1.32 0 2 0 C-1.47062236 7.84103569 -8.199148 14.42556845 -14.3125 20.3125 C-16.1901929 22.1901929 -17.90196993 24.16739578 -19.625 26.1875 C-22.18866417 29.16783193 -24.80579753 31.67694366 -28 34 C-28 31 -28 31 -26.76586914 29.45703125 C-26.19473389 28.91433594 -25.62359863 28.37164062 -25.03515625 27.8125 C-24.40391846 27.20132324 -23.77268066 26.59014648 -23.12231445 25.96044922 C-22.44257568 25.31350098 -21.76283691 24.66655273 -21.0625 24 C-14.02433201 17.14663261 -7.80366258 10.04811411 -1.88671875 2.1953125 C-1.26410156 1.47085938 -0.64148438 0.74640625 0 0 Z " fill="#F3F5D9" transform="translate(296,205)"/>
<path d="M0 0 C0 0.66 0 1.32 0 2 C-2.1562432 3.59042052 -4.31037495 5.05605379 -6.5625 6.5 C-7.93762944 7.39823937 -9.31262555 8.29668289 -10.6875 9.1953125 C-11.75484375 9.88802246 -11.75484375 9.88802246 -12.84375 10.59472656 C-16.26869565 12.82683562 -19.66460279 15.10202147 -23.0625 17.375 C-24.8235712 18.54951577 -26.58487656 19.72357015 -28.34960938 20.89257812 C-29.46917859 21.64381569 -30.57969824 22.40868389 -31.68164062 23.18554688 C-35.75167019 26.02613998 -35.75167019 26.02613998 -38.375 25.75 C-38.91125 25.5025 -39.4475 25.255 -40 25 C-33.25 21 -33.25 21 -31 21 C-31 20.34 -31 19.68 -31 19 C-28.96246024 17.56805405 -26.94713033 16.27110673 -24.8125 15 C-24.23435547 14.64421875 -23.65621094 14.2884375 -23.06054688 13.921875 C-19.80058386 11.94747932 -16.58437704 10.29604594 -13 9 C-13 8.34 -13 7.68 -13 7 C-10.6640625 5.2734375 -10.6640625 5.2734375 -7.625 3.375 C-6.62726563 2.74335938 -5.62953125 2.11171875 -4.6015625 1.4609375 C-2 0 -2 0 0 0 Z " fill="#DEEFCF" transform="translate(220,278)"/>
<path d="M0 0 C3.60133826 1.33382898 5.37423078 3.52970511 7.71875 6.49609375 C9.07877806 8.190139 9.07877806 8.190139 11.4375 9.9375 C13.59147917 11.67119055 15.07866056 13.20377635 16.8125 15.3125 C19.63268559 18.71718001 22.76493626 21.51185068 26.16796875 24.32421875 C28.07169971 26.0655846 29.51812062 27.8941714 31 30 C26.32108986 28.56639995 23.4307843 25.85368533 20.078125 22.44140625 C19.53267029 21.89645004 18.98721558 21.35149384 18.42523193 20.7900238 C17.27873717 19.64119659 16.13591436 18.48869448 14.99658203 17.33276367 C13.2506124 15.56312071 11.49161913 13.80725651 9.73046875 12.05273438 C8.6163918 10.93308284 7.5030834 9.81266595 6.390625 8.69140625 C5.86462708 8.16631973 5.33862915 7.64123322 4.79669189 7.10023499 C2.48174617 4.73972686 1.06064106 3.18192317 0 0 Z " fill="#DBECEF" transform="translate(60,217)"/>
<path d="M0 0 C0.33 0.66 0.66 1.32 1 2 C0.29875 2.680625 -0.4025 3.36125 -1.125 4.0625 C-4.27666436 7.21416436 -7.121248 10.60088023 -10 14 C-16.30918047 21.3779738 -23.03692258 28.24205416 -30 35 C-30 31.51645795 -29.54964842 31.11572947 -27.3125 28.625 C-26.76078125 28.00882813 -26.2090625 27.39265625 -25.640625 26.7578125 C-22.96089872 23.8866772 -20.18343371 21.13040248 -17.34375 18.41796875 C-13.59853047 14.77952083 -10.41624805 11.01925732 -7.34765625 6.796875 C-5.23732043 3.9830939 -3.16096941 1.5804847 0 0 Z " fill="#CFE33A" transform="translate(297,203)"/>
<path d="M0 0 C0.99 0 1.98 0 3 0 C3.33 0.99 3.66 1.98 4 3 C2.35 3 0.7 3 -1 3 C-1 3.99 -1 4.98 -1 6 C-1.804375 6.12375 -2.60875 6.2475 -3.4375 6.375 C-4.283125 6.58125 -5.12875 6.7875 -6 7 C-6.33 7.66 -6.66 8.32 -7 9 C-8.65 9 -10.3 9 -12 9 C-12.66 10.32 -13.32 11.64 -14 13 C-14.66 13 -15.32 13 -16 13 C-16 13.66 -16 14.32 -16 15 C-17.65 15 -19.3 15 -21 15 C-21 13.68 -21 12.36 -21 11 C-19.02 11 -17.04 11 -15 11 C-14.67 10.01 -14.34 9.02 -14 8 C-13.34 8 -12.68 8 -12 8 C-12 7.34 -12 6.68 -12 6 C-10.56570999 5.32645501 -9.12742943 4.66140299 -7.6875 4 C-6.88699219 3.62875 -6.08648437 3.2575 -5.26171875 2.875 C-3 2 -3 2 0 2 C0 1.34 0 0.68 0 0 Z " fill="#FFFFFF" transform="translate(68,45)"/>
<path d="M0 0 C0 0.66 0 1.32 0 2 C-1.0725 2.45375 -2.145 2.9075 -3.25 3.375 C-5.24033985 4.22628994 -7.1881597 5.09407985 -9.125 6.0625 C-14.13376463 8.56688231 -18.46154307 9.43676709 -24 10 C-23.67 9.34 -23.34 8.68 -23 8 C-22.01 8 -21.02 8 -20 8 C-20 7.01 -20 6.02 -20 5 C-17.23058394 4.16169027 -14.45964931 3.32917966 -11.6875 2.5 C-10.50897461 2.14228516 -10.50897461 2.14228516 -9.30664062 1.77734375 C-8.54931641 1.55175781 -7.79199219 1.32617188 -7.01171875 1.09375 C-6.31522217 0.88427734 -5.61872559 0.67480469 -4.90112305 0.45898438 C-3 0 -3 0 0 0 Z " fill="#A2BBF6" transform="translate(89,46)"/>
<path d="M0 0 C0.66 0.99 1.32 1.98 2 3 C-2.43580297 11.25016494 -6.98335797 19.30973673 -12.4375 26.9375 C-12.86208496 27.53385254 -13.28666992 28.13020508 -13.72412109 28.74462891 C-16.7305566 32.8652783 -16.7305566 32.8652783 -19 34 C-18.39535714 29.89635831 -16.1982896 27.19192691 -13.8125 23.875 C-8.4354588 16.28123987 -3.40525956 8.70232997 0 0 Z " fill="#F2F1D7" transform="translate(317,171)"/>
<path d="M0 0 C4.45692788 1.45863094 5.24526409 3.04290555 7.4375 7.125 C8.16440566 8.37631618 8.89356064 9.62632851 9.625 10.875 C10.59197552 12.60888714 11.54964796 14.34929591 12.4375 16.125 C7.3159494 14.29587479 5.32410532 9.89821063 3 5.25 C1.61417178 2.8499247 1.61417178 2.8499247 -1.125 2.6875 C-3.73463728 2.91642762 -3.73463728 2.91642762 -5.5625 5.125 C-5.96297444 7.44775177 -6.3022104 9.78239357 -6.5625 12.125 C-8.5625 10.125 -8.5625 10.125 -9 7.25 C-8.5625 4.125 -8.5625 4.125 -6.5 1.6875 C-3.5625 0.125 -3.5625 0.125 0 0 Z " fill="#49A3F3" transform="translate(80.5625,123.875)"/>
<path d="M0 0 C1.31823302 0.59155331 2.62947051 1.19871463 3.9375 1.8125 C5.03384766 2.31716797 5.03384766 2.31716797 6.15234375 2.83203125 C8 4 8 4 9 7 C9.99 7.66 10.98 8.32 12 9 C12 9.66 12 10.32 12 11 C12.5775 11.2475 13.155 11.495 13.75 11.75 C16.32939979 13.18299988 18.06121592 14.78424676 20 17 C20 17.66 20 18.32 20 19 C19.01 18.67 18.02 18.34 17 18 C17 17.34 17 16.68 17 16 C16.20142578 15.63841797 16.20142578 15.63841797 15.38671875 15.26953125 C12.33223729 13.64480707 9.61376759 11.7176513 6.8125 9.6875 C5.74644531 8.92824219 4.68039063 8.16898438 3.58203125 7.38671875 C0.81544646 4.82940664 0.22855872 3.68959075 0 0 Z " fill="#64C0EB" transform="translate(152,58)"/>
<path d="M0 0 C0.99 0.33 1.98 0.66 3 1 C2.67 1.66 2.34 2.32 2 3 C2.66 3 3.32 3 4 3 C6.02332616 4.86768569 6.93298787 6.28338048 7.19140625 9.046875 C7.18788604 11.0322723 7.09914617 13.01707668 7 15 C5.35 14.67 3.7 14.34 2 14 C1.67 12.02 1.34 10.04 1 8 C0.34 8 -0.32 8 -1 8 C-1.625 5.6875 -1.625 5.6875 -2 3 C-1.34 2.01 -0.68 1.02 0 0 Z M5 7 C4.67 8.65 4.34 10.3 4 12 C4.66 11.34 5.32 10.68 6 10 C5.67 9.01 5.34 8.02 5 7 Z " fill="#F3F3F3" transform="translate(31,183)"/>
<path d="M0 0 C3.0384681 1.99670761 5.40908854 4.2734989 7.1875 7.4375 C7.5 11.3125 7.5 11.3125 7.1875 14.4375 C6.1975 14.9325 6.1975 14.9325 5.1875 15.4375 C3.6875 14.0625 3.6875 14.0625 2.1875 12.4375 C2.1875 11.7775 2.1875 11.1175 2.1875 10.4375 C1.1975 10.4375 0.2075 10.4375 -0.8125 10.4375 C-0.8125 9.7775 -0.8125 9.1175 -0.8125 8.4375 C0.8375 8.1075 2.4875 7.7775 4.1875 7.4375 C3.5275 6.4475 2.8675 5.4575 2.1875 4.4375 C1.1975 5.4275 0.2075 6.4175 -0.8125 7.4375 C-1.1425 6.7775 -1.4725 6.1175 -1.8125 5.4375 C-0.875 3.3125 -0.875 3.3125 0.1875 1.4375 C-0.4725 1.4375 -1.1325 1.4375 -1.8125 1.4375 C-1.8125 2.0975 -1.8125 2.7575 -1.8125 3.4375 C-2.4725 3.4375 -3.1325 3.4375 -3.8125 3.4375 C-3.8125 2.4475 -3.8125 1.4575 -3.8125 0.4375 C-1.8125 -0.5625 -1.8125 -0.5625 0 0 Z " fill="#F7F7F7" transform="translate(51.8125,210.5625)"/>
<path d="M0 0 C-1.20783751 3.62351253 -2.29653142 4.15215236 -5.4375 6.1875 C-6.24058594 6.71730469 -7.04367188 7.24710937 -7.87109375 7.79296875 C-10 9 -10 9 -12 9 C-12 9.66 -12 10.32 -12 11 C-14.44763337 12.97731849 -17.19852837 14.53815295 -19.875 16.1875 C-20.62136719 16.66380859 -21.36773437 17.14011719 -22.13671875 17.63085938 C-22.85214844 18.07623047 -23.56757813 18.52160156 -24.3046875 18.98046875 C-25.2944458 19.59764771 -25.2944458 19.59764771 -26.30419922 20.22729492 C-27.14362061 20.60978394 -27.14362061 20.60978394 -28 21 C-28.66 20.67 -29.32 20.34 -30 20 C-23.36404813 15.08835058 -16.641914 10.37019727 -9.7265625 5.859375 C-6.94003486 4.01761908 -6.94003486 4.01761908 -4.2734375 1.765625 C-2 0 -2 0 0 0 Z " fill="#96E753" transform="translate(219,276)"/>
<path d="M0 0 C0.66 0.33 1.32 0.66 2 1 C-2.76383368 7.89300693 -8.0199167 14.63882778 -16.57421875 16.5859375 C-19.0625 16.875 -19.0625 16.875 -23 17 C-23 16.34 -23 15.68 -23 15 C-22.43152344 14.82984375 -21.86304688 14.6596875 -21.27734375 14.484375 C-11.73365835 11.489028 -6.22199235 7.79167431 0 0 Z " fill="#66D497" transform="translate(204,177)"/>
<path d="M0 0 C0.495 0.99 0.495 0.99 1 2 C0.12859375 2.09796875 -0.7428125 2.1959375 -1.640625 2.296875 C-10.42665251 3.39988278 -19.29804476 4.84837383 -27.1484375 9.1875 C-29 10 -29 10 -32 9 C-26.12055087 5.84251806 -20.41842377 3.77821905 -14 2 C-12.783125 1.608125 -11.56625 1.21625 -10.3125 0.8125 C-6.76235853 -0.05828942 -3.64141202 -0.14862906 0 0 Z " fill="#DDF1F2" transform="translate(234,45)"/>
<path d="M0 0 C-4.79474839 4.79474839 -11.94557055 5.16204057 -18.42138672 5.20654297 C-21.61660768 5.17893082 -24.8063879 5.10698204 -28 5 C-28 4.34 -28 3.68 -28 3 C-26.99839844 2.95101562 -25.99679688 2.90203125 -24.96484375 2.8515625 C-23.62237241 2.77645921 -22.2799257 2.70091474 -20.9375 2.625 C-19.62652344 2.55539063 -18.31554687 2.48578125 -16.96484375 2.4140625 C-11.06874412 1.79831219 -5.98917388 -0.29215482 0 0 Z " fill="#62D28A" transform="translate(196,203)"/>
<path d="M0 0 C0.33 0.66 0.66 1.32 1 2 C0.45472656 2.29132812 -0.09054688 2.58265625 -0.65234375 2.8828125 C-9.95357771 7.93886788 -17.75158083 13.21831839 -25 21 C-25.33 20.01 -25.66 19.02 -26 18 C-18.34795009 10.51364408 -10.35564385 3.45188128 0 0 Z " fill="#ECF2FC" transform="translate(68,52)"/>
<path d="M0 0 C0.66 0.33 1.32 0.66 2 1 C1.01 1.33 0.02 1.66 -1 2 C-1 2.66 -1 3.32 -1 4 C-8.9925652 6.2173731 -15.78079326 7.53994167 -24 6 C-23.67 5.34 -23.34 4.68 -23 4 C-19.74055764 3.69988817 -16.52421595 3.58472241 -13.25390625 3.52148438 C-9.48978887 3.37832221 -6.5516949 2.97538234 -3.1015625 1.40234375 C-2.07804687 0.93957031 -1.05453125 0.47679687 0 0 Z " fill="#81DA74" transform="translate(256,154)"/>
<path d="M0 0 C2.375 2 2.375 2 4 4 C3.67 4.66 3.34 5.32 3 6 C2.62875 5.505 2.2575 5.01 1.875 4.5 C-0.76701674 2.38638661 -2.71137147 2.7140323 -6 3 C-6.33 3.33 -6.66 3.66 -7 4 C-6.90982004 6.19050021 -6.75333792 8.378466 -6.5625 10.5625 C-6.46066406 11.76003906 -6.35882813 12.95757812 -6.25390625 14.19140625 C-6.17011719 15.11824219 -6.08632812 16.04507813 -6 17 C-9.01861807 13.98138193 -9.86000479 11.14329421 -10.375 6.9375 C-10 4 -10 4 -8.375 1.625 C-5.28813568 -0.48706506 -3.6717087 -0.61195145 0 0 Z " fill="#5BD8AB" transform="translate(214,125)"/>
<path d="M0 0 C3.84762964 0.22633116 5.46020383 1.28452936 7.9375 4.0625 C10.1859736 6.46663715 10.66795938 6.94578929 14.0625 7.5 C16.95958118 7.0068798 19.34566943 6.24909674 22 5 C20.02 7.31 18.04 9.62 16 12 C10.25065997 10.1399194 6.10974711 6.31523446 2 2 C1.34 1.34 0.68 0.68 0 0 Z " fill="#DEEBF1" transform="translate(159,64)"/>
<path d="M0 0 C3.89873461 1.50416812 5.48504763 3.72151568 7.8125 7.125 C10.86950519 11.48151863 14.06644622 15.51243879 17.65234375 19.44140625 C19 21 19 21 20 23 C15.22430644 22.16753966 13.34248381 19.14065722 10.5625 15.4375 C10.07676514 14.80505371 9.59103027 14.17260742 9.09057617 13.52099609 C5.78118149 9.16679336 2.74590903 4.73432592 0 0 Z " fill="#D7E9F0" transform="translate(42,194)"/>
<path d="M0 0 C3.48330216 0.64505596 6.09432866 1.98217268 9 4 C9 4.66 9 5.32 9 6 C9.928125 6.4640625 9.928125 6.4640625 10.875 6.9375 C12.25 7.625 13.625 8.3125 15 9 C15 9.99 15 10.98 15 12 C14.34 12 13.68 12 13 12 C13 11.34 13 10.68 13 10 C12.01 10 11.02 10 10 10 C10 9.34 10 8.68 10 8 C9.01 8.33 8.02 8.66 7 9 C7 7.68 7 6.36 7 5 C5.02 5.33 3.04 5.66 1 6 C0.67 4.02 0.34 2.04 0 0 Z " fill="#E2E2E2" transform="translate(128,282)"/>
<path d="M0 0 C2 3 2 3 1.4375 6.375 C-0.27630511 12.36771723 -2.40452102 18.33486799 -5 24 C-5.66 24.33 -6.32 24.66 -7 25 C-6.37793156 20.36983151 -5.13594753 16.30795285 -3.5 11.9375 C-2.01559086 7.96325343 -0.69702221 4.19005394 0 0 Z " fill="#E3E2C3" transform="translate(325,148)"/>
<path d="M0 0 C0.33 0 0.66 0 1 0 C1.04898437 1.07378906 1.09796875 2.14757812 1.1484375 3.25390625 C1.22353398 4.69012642 1.29907876 6.12632319 1.375 7.5625 C1.4059375 8.26697266 1.436875 8.97144531 1.46875 9.69726562 C1.72833332 14.39139731 2.62564893 18.47794163 4 23 C4.125 26.4375 4.125 26.4375 4 29 C3.34 29 2.68 29 2 29 C0.06368829 22.53546326 -0.24556441 16.72378423 -0.125 10 C-0.11597656 9.03449219 -0.10695313 8.06898437 -0.09765625 7.07421875 C-0.07430635 4.71587901 -0.04156047 2.35807714 0 0 Z " fill="#76A3F9" transform="translate(20,118)"/>
<path d="M0 0 C8.32000829 -0.56727329 16.37403286 1.78759626 24 5 C24 5.33 24 5.66 24 6 C15.55467195 5.24595285 7.31258777 3.62171958 -1 2 C-0.67 1.34 -0.34 0.68 0 0 Z " fill="#49E3B7" transform="translate(251,47)"/>
<path d="M0 0 C2.31 0.33 4.62 0.66 7 1 C7 1.66 7 2.32 7 3 C7.61875 3.12375 8.2375 3.2475 8.875 3.375 C11 4 11 4 13 6 C13 7.32 13 8.64 13 10 C11.35 9.67 9.7 9.34 8 9 C8 8.01 8 7.02 8 6 C7.34 6 6.68 6 6 6 C6 5.01 6 4.02 6 3 C5.34 3 4.68 3 4 3 C4 3.99 4 4.98 4 6 C3.34 6 2.68 6 2 6 C2 4.35 2 2.7 2 1 C1.34 0.67 0.68 0.34 0 0 Z " fill="#FFFFFF" transform="translate(157,303)"/>
<path d="M0 0 C0.86625 0.556875 0.86625 0.556875 1.75 1.125 C1.75 1.785 1.75 2.445 1.75 3.125 C2.678125 3.5890625 2.678125 3.5890625 3.625 4.0625 C5 4.75 6.375 5.4375 7.75 6.125 C7.75 7.115 7.75 8.105 7.75 9.125 C5.75 9.125 5.75 9.125 4.125 7.75 C2.75 6.125 2.75 6.125 2.75 4.125 C1.76 3.795 0.77 3.465 -0.25 3.125 C-0.58 4.115 -0.91 5.105 -1.25 6.125 C-0.59 6.455 0.07 6.785 0.75 7.125 C-0.9 7.125 -2.55 7.125 -4.25 7.125 C-3.92 6.135 -3.59 5.145 -3.25 4.125 C-4.24 3.795 -5.23 3.465 -6.25 3.125 C-6.25 2.465 -6.25 1.805 -6.25 1.125 C-2.80384615 -1.09038462 -2.80384615 -1.09038462 0 0 Z M-4.25 1.125 C-3.25 3.125 -3.25 3.125 -3.25 3.125 Z " fill="#F9F9F9" transform="translate(111.25,266.875)"/>
<path d="M0 0 C0.99 0.33 1.98 0.66 3 1 C2 3 2 3 0.2890625 3.8046875 C-3.38819854 5.72489548 -6.12695806 8.69397573 -9.109375 11.54296875 C-12.79821884 15 -12.79821884 15 -15 15 C-15 15.66 -15 16.32 -15 17 C-16.32 17.33 -17.64 17.66 -19 18 C-15.12344465 13.03316346 -10.80338445 9.05933078 -6 5 C-5.42507813 4.47535156 -4.85015625 3.95070312 -4.2578125 3.41015625 C-2.6875 2 -2.6875 2 0 0 Z " fill="#B6E545" transform="translate(265,237)"/>
<path d="M0 0 C3.87050398 3.87050398 3.95752353 9.88467161 4.06347656 15.16113281 C3.97543147 18.48805013 3.81816405 21.80257831 3.625 25.125 C3.56828125 26.27226562 3.5115625 27.41953125 3.453125 28.6015625 C3.31311278 31.40180698 3.16186516 34.2009483 3 37 C2.67 37 2.34 37 2 37 C1.97494385 36.26885986 1.9498877 35.53771973 1.92407227 34.78442383 C1.80777359 31.46028583 1.68520072 28.13640759 1.5625 24.8125 C1.52318359 23.66201172 1.48386719 22.51152344 1.44335938 21.32617188 C1.40146484 20.21435547 1.35957031 19.10253906 1.31640625 17.95703125 C1.27974854 16.93585205 1.24309082 15.91467285 1.20532227 14.86254883 C1.01134306 12.15814189 0.54255327 9.65147946 0 7 C-0.03824623 4.66698014 -0.04574284 2.33288492 0 0 Z " fill="#E4ECA3" transform="translate(325,103)"/>
<path d="M0 0 C3.06468185 1.32121479 4.69180612 2.53032083 6.54296875 5.30078125 C6.97673828 5.94853516 7.41050781 6.59628906 7.85742188 7.26367188 C8.29634766 7.93978516 8.73527344 8.61589844 9.1875 9.3125 C9.63802734 9.97701172 10.08855469 10.64152344 10.55273438 11.32617188 C12.87326877 14.84350362 14.57652429 17.70711874 15 22 C14.34 22 13.68 22 13 22 C12.484375 20.88625 11.96875 19.7725 11.4375 18.625 C9.23893218 14.19634368 6.4945734 10.28513557 3.5859375 6.296875 C2.17245025 4.24975554 1.04371118 2.25276274 0 0 Z " fill="#DDEBD5" transform="translate(307,73)"/>
<path d="M0 0 C0.66 0 1.32 0 2 0 C2 0.99 2 1.98 2 3 C2.99 3 3.98 3 5 3 C6.36639342 4.6396721 7.6949419 6.31110128 9 8 C10.63356951 9.37368345 12.2925002 10.71937515 14 12 C13.67 13.32 13.34 14.64 13 16 C10.82404478 13.90474642 8.65936733 11.79972937 6.5 9.6875 C5.87996094 9.09259766 5.25992187 8.49769531 4.62109375 7.88476562 C4.03457031 7.30791016 3.44804687 6.73105469 2.84375 6.13671875 C2.02680664 5.34334106 2.02680664 5.34334106 1.19335938 4.53393555 C0 3 0 3 0 0 Z " fill="#EBEBEB" transform="translate(297,57)"/>
<path d="M0 0 C6.6911179 1.79709294 13.07956376 3.91034257 19.43359375 6.6796875 C19.43359375 7.3396875 19.43359375 7.9996875 19.43359375 8.6796875 C15.40664024 7.76125951 11.83995706 6.86029342 8.05859375 5.1796875 C3.59625553 3.33320272 -0.82328746 2.49088488 -5.56640625 1.6796875 C-2.56640625 -0.3203125 -2.56640625 -0.3203125 0 0 Z " fill="#D2F4EC" transform="translate(263.56640625,46.3203125)"/>
<path d="M0 0 C8.55201116 1.32703621 15.44593101 4.98119232 23 9 C22.67 9.66 22.34 10.32 22 11 C21.12601563 10.52820313 21.12601563 10.52820313 20.234375 10.046875 C13.68226198 6.62658959 7.05818363 4.17081593 0 2 C0 1.34 0 0.68 0 0 Z " fill="#BCD0DD" transform="translate(128,48)"/>
<path d="M0 0 C0 2 0 2 -1.36328125 3.41015625 C-2.00652344 3.95542969 -2.64976562 4.50070313 -3.3125 5.0625 C-4.03050781 5.67351562 -4.74851562 6.28453125 -5.48828125 6.9140625 C-9.9703703 10.6363573 -14.47414044 14.33105871 -19 18 C-19.66 17.67 -20.32 17.34 -21 17 C-19.68 16.34 -18.36 15.68 -17 15 C-17 14.34 -17 13.68 -17 13 C-15.30096977 11.48259024 -13.53927277 10.034872 -11.75 8.625 C-8.94686688 6.40770687 -6.26298803 4.2694248 -3.765625 1.7109375 C-2 0 -2 0 0 0 Z " fill="#E7EDD0" transform="translate(267,239)"/>
<path d="M0 0 C6.2234947 5.76449509 10.61965434 13.44222262 11 22 C8.16863745 18.74393306 6.72100084 15.17082437 5.05078125 11.25 C4.0948358 9.20306849 3.05124247 7.46421197 1.75 5.625 C0 3 0 3 0 0 Z " fill="#95E757" transform="translate(310,78)"/>
<path d="M0 0 C-0.66 0.391875 -1.32 0.78375 -2 1.1875 C-3.65329635 2.18636654 -5.29870079 3.20056501 -6.90234375 4.27734375 C-10.94286602 6.95292951 -14.04091014 8.62806826 -19 9 C-14.19023658 4.01586449 -7.27404447 -2.42468149 0 0 Z " fill="#34CEEC" transform="translate(205,57)"/>
<path d="M0 0 C0.66 1.65 1.32 3.3 2 5 C1.34 4.67 0.68 4.34 0 4 C-1.99960012 3.960008 -4.00047242 3.95653201 -6 4 C-6.99 5.98 -7.98 7.96 -9 10 C-9.66 9.01 -10.32 8.02 -11 7 C-6.42400881 -0.16905286 -6.42400881 -0.16905286 0 0 Z " fill="#5AC5E7" transform="translate(141,124)"/>
<path d="M0 0 C1.05367562 2.71771213 1.04119417 3.87551411 0.109375 6.69140625 C-0.33921875 7.63886719 -0.7878125 8.58632812 -1.25 9.5625 C-1.68828125 10.51253906 -2.1265625 11.46257812 -2.578125 12.44140625 C-3.86183826 14.75138478 -5.02618477 16.27581434 -7 18 C-6.44380331 13.3110507 -5.11817327 9.80075733 -2.9375 5.625 C-2.38964844 4.56539063 -1.84179688 3.50578125 -1.27734375 2.4140625 C-0.85582031 1.61742188 -0.43429688 0.82078125 0 0 Z " fill="#688FFA" transform="translate(31,87)"/>
<path d="M0 0 C-3.29441785 2.82378673 -6.49235858 3.99994594 -10.625 5.25 C-11.77226562 5.60578125 -12.91953125 5.9615625 -14.1015625 6.328125 C-17 7 -17 7 -19 6 C-16.45757288 2.93853067 -13.79531359 1.98658102 -10.0625 0.75 C-9.02222656 0.39421875 -7.98195312 0.0384375 -6.91015625 -0.328125 C-4.05806177 -0.98659513 -2.69443735 -1.01284874 0 0 Z " fill="#3EDBED" transform="translate(225,49)"/>
<path d="M0 0 C6.12806088 0.70708395 10.97837167 6.75494787 15 11 C15.99 12.485 15.99 12.485 17 14 C11.79027084 14 8.58109594 9.49956486 5 6 C3.22905099 4.05399166 1.61326103 2.08162714 0 0 Z " fill="#4DC2D3" transform="translate(74,230)"/>
<path d="M0 0 C4.60853797 0.72008406 8.67237409 2.31295939 13 4 C13 4.66 13 5.32 13 6 C13.99 6.33 14.98 6.66 16 7 C9.11893299 6.82836341 5.26487612 5.48074563 0 1 C0 0.67 0 0.34 0 0 Z " fill="#58B8E9" transform="translate(91,140)"/>
<path d="M0 0 C4.04301175 1.48518799 7.61146256 3.42877998 11.3125 5.625 C12.38113281 6.25664062 13.44976562 6.88828125 14.55078125 7.5390625 C15.76314453 8.26222656 15.76314453 8.26222656 17 9 C14 10 14 10 11.3125 8.875 C2.32366124 3.78697806 2.32366124 3.78697806 0 2 C0 1.34 0 0.68 0 0 Z " fill="#52D0B1" transform="translate(142,195)"/>
<path d="M0 0 C0.66 0 1.32 0 2 0 C2.33808686 2.06172613 2.67027361 4.1244203 3 6.1875 C3.185625 7.33605469 3.37125 8.48460937 3.5625 9.66796875 C3.93489477 12.50415393 4.08596021 15.14719564 4 18 C0.80626843 14.80626843 0.09811818 10.93170168 -0.125 6.5390625 C-0.125 4.35560786 -0.08904106 2.18150585 0 0 Z " fill="#91B5E9" transform="translate(23,148)"/>
<path d="M0 0 C3.62187387 0.55721136 7.2215131 1.2089771 10.8125 1.9375 C11.58207031 2.09089844 12.35164062 2.24429688 13.14453125 2.40234375 C13.75683594 2.59957031 14.36914062 2.79679688 15 3 C15.33 3.66 15.66 4.32 16 5 C9.34454208 5.54330269 5.54165256 4.77304004 0 1 C0 0.67 0 0.34 0 0 Z " fill="#75DD90" transform="translate(225,142)"/>
<path d="M0 0 C0.763125 0.309375 1.52625 0.61875 2.3125 0.9375 C4.18789677 1.67893593 6.08684652 2.36228217 8 3 C8 3.66 8 4.32 8 5 C8.66 5.33 9.32 5.66 10 6 C9.34 6 8.68 6 8 6 C8 6.66 8 7.32 8 8 C6.35 8 4.7 8 3 8 C3 6.35 3 4.7 3 3 C2.01 3 1.02 3 0 3 C0 2.01 0 1.02 0 0 Z " fill="#F0F0F0" transform="translate(147,295)"/>
<path d="M0 0 C3.89006773 1.38780795 6.96558708 3.2152227 10.3125 5.625 C11.19550781 6.25664062 12.07851562 6.88828125 12.98828125 7.5390625 C13.65214844 8.02117187 14.31601563 8.50328125 15 9 C12 10 12 10 9 10 C9 9.01 9 8.02 9 7 C8.443125 6.773125 7.88625 6.54625 7.3125 6.3125 C4.36753316 4.64103234 2.31843456 2.44723648 0 0 Z " fill="#6FD785" transform="translate(140,284)"/>
<path d="M0 0 C5.61 0.33 11.22 0.66 17 1 C17 1.66 17 2.32 17 3 C12.05 3 7.1 3 2 3 C2 2.34 2 1.68 2 1 C1.34 0.67 0.68 0.34 0 0 Z " fill="#58D0A4" transform="translate(164,192)"/>
<path d="M0 0 C0.66 0 1.32 0 2 0 C1.91299202 2.43922361 1.80613998 4.87478414 1.6875 7.3125 C1.66494141 8.00279297 1.64238281 8.69308594 1.61914062 9.40429688 C1.38725874 13.76789236 1.22799347 14.77200653 -2 18 C-1.34 12.06 -0.68 6.12 0 0 Z " fill="#F0F3ED" transform="translate(328,133)"/>
<path d="M0 0 C0.66 0 1.32 0 2 0 C3.2380014 3.57644848 2.74926071 6.33694766 2 10 C1.34 10 0.68 10 0 10 C0 9.01 0 8.02 0 7 C-0.99 7 -1.98 7 -3 7 C-2.67 5.35 -2.34 3.7 -2 2 C-1.34 2 -0.68 2 0 2 C0 1.34 0 0.68 0 0 Z " fill="#FFFFFF" transform="translate(332,143)"/>
<path d="M0 0 C5.56890517 0.47986031 10.67067568 1.29915181 16 3 C16 3.66 16 4.32 16 5 C14.58297487 4.85769192 13.1663904 4.71099254 11.75 4.5625 C10.56664063 4.44068359 10.56664063 4.44068359 9.359375 4.31640625 C7.17635361 4.02365007 5.1226818 3.57935581 3 3 C3 2.34 3 1.68 3 1 C2.01 0.67 1.02 0.34 0 0 Z " fill="#4E9AF7" transform="translate(115,47)"/>
<path d="M0 0 C4.00508702 2.9752075 7.0875615 5.97398207 10 10 C9.67 10.99 9.34 11.98 9 13 C4.61191026 9.03429323 1.31445687 5.98808129 0 0 Z " fill="#40A8E6" transform="translate(52,203)"/>
<path d="M0 0 C0.99 0.33 1.98 0.66 3 1 C-0.63 4.63 -4.26 8.26 -8 12 C-8.33 11.34 -8.66 10.68 -9 10 C-7.8758824 8.70756532 -6.75067408 7.41607925 -5.625 6.125 C-4.99851562 5.40570313 -4.37203125 4.68640625 -3.7265625 3.9453125 C-2.52573166 2.5923402 -1.2791655 1.2791655 0 0 Z " fill="#557EFA" transform="translate(50,65)"/>
<path d="M0 0 C0.33 0.99 0.66 1.98 1 3 C-0.546875 5.62890625 -0.546875 5.62890625 -2.75 8.5625 C-3.46671875 9.53316406 -4.1834375 10.50382813 -4.921875 11.50390625 C-7 14 -7 14 -10 16 C-8.55797524 11.84848662 -6.4989562 8.70021555 -3.875 5.1875 C-3.15054687 4.21167969 -2.42609375 3.23585937 -1.6796875 2.23046875 C-0.84824219 1.12638672 -0.84824219 1.12638672 0 0 Z " fill="#E5DF29" transform="translate(306,188)"/>
<path d="M0 0 C0 3 0 3 -1.390625 4.7890625 C-2.31101563 5.69785156 -2.31101563 5.69785156 -3.25 6.625 C-3.85328125 7.23601562 -4.4565625 7.84703125 -5.078125 8.4765625 C-7.09363101 10.0742197 -8.48788161 10.58872398 -11 11 C-9.73973202 7.21919607 -8.06453466 6.22704575 -4.9375 3.8125 C-4.01839844 3.09707031 -3.09929687 2.38164062 -2.15234375 1.64453125 C-1.44207031 1.10183594 -0.73179687 0.55914062 0 0 Z " fill="#4ABDDB" transform="translate(139,143)"/>
<path d="M0 0 C0.33 0 0.66 0 1 0 C1.061875 0.969375 1.12375 1.93875 1.1875 2.9375 C1.85625799 7.88225603 4.42590696 11.81116224 7 16 C4.5024847 15.63194511 3.32010548 15.39412386 1.69921875 13.3984375 C-0.80645682 8.38708636 -1.36506425 5.460257 0 0 Z " fill="#5FB0F2" transform="translate(74,129)"/>
<path d="M0 0 C2.31 0.66 4.62 1.32 7 2 C7 3.32 7 4.64 7 6 C8.32 6.66 9.64 7.32 11 8 C11 8.99 11 9.98 11 11 C9.16365304 9.35742342 7.3308593 7.71117305 5.5 6.0625 C4.97535156 5.59392578 4.45070313 5.12535156 3.91015625 4.64257812 C2.5878256 3.44904592 1.29166061 2.22665821 0 1 C0 0.67 0 0.34 0 0 Z " fill="#C0EBE4" transform="translate(100,255)"/>
<path d="M0 0 C5.064172 -0.69850648 5.064172 -0.69850648 8 0 C10.61094279 2.29998862 12.55203381 4.83143799 14 8 C13.67 8.99 13.34 9.98 13 11 C12.64808594 10.44570312 12.29617187 9.89140625 11.93359375 9.3203125 C8.50190895 4.16970072 8.50190895 4.16970072 3.125 1.5 C2.09375 1.335 1.0625 1.17 0 1 C0 0.67 0 0.34 0 0 Z " fill="#64CEC7" transform="translate(137,176)"/>
<path d="M0 0 C4.02144292 1.37878043 6.73061335 3.31742634 10 6 C11.31138904 6.70885894 12.63777017 7.39456452 14 8 C14 8.66 14 9.32 14 10 C8.03868848 8.65870491 4.19807984 5.25135496 0 1 C0 0.67 0 0.34 0 0 Z " fill="#62D68E" transform="translate(212,147)"/>
<path d="M0 0 C3.28993102 -0.36554789 4.63099885 -0.26218503 7.375 1.6875 C9 4 9 4 8.75 6.75 C8.5025 7.4925 8.255 8.235 8 9 C7.690625 8.360625 7.38125 7.72125 7.0625 7.0625 C6.1654837 5.06389179 6.1654837 5.06389179 5 4 C2.66702567 3.95907063 0.33294775 3.95758277 -2 4 C-1.34 2.68 -0.68 1.36 0 0 Z " fill="#9EE686" transform="translate(268,125)"/>
<path d="M0 0 C3.96 0 7.92 0 12 0 C12 0.33 12 0.66 12 1 C10.35 1 8.7 1 7 1 C7 1.66 7 2.32 7 3 C4.36 3.33 1.72 3.66 -1 4 C-0.67 2.68 -0.34 1.36 0 0 Z " fill="#FFFFFF" transform="translate(78,41)"/>
<path d="M0 0 C3.01614813 1.1170919 4.64508669 2.6125776 6.625 5.0625 C8.67119397 8.00824713 8.67119397 8.00824713 11 9 C10.67 9.99 10.34 10.98 10 12 C8.51476358 10.56877218 7.03699538 9.12979111 5.5625 7.6875 C4.73878906 6.88699219 3.91507813 6.08648437 3.06640625 5.26171875 C1 3 1 3 0 0 Z " fill="#EAF4F9" transform="translate(60,217)"/>
<path d="M0 0 C0.33 0.66 0.66 1.32 1 2 C-0.0725 2.2475 -1.145 2.495 -2.25 2.75 C-5.99649437 3.99883146 -7.52073882 5.02488658 -10 8 C-9.6875 5.125 -9.6875 5.125 -9 2 C-5.5647952 -0.29013653 -4.014669 -0.17842973 0 0 Z " fill="#43C4C9" transform="translate(142,174)"/>
<path d="M0 0 C0.66 0 1.32 0 2 0 C2 0.99 2 1.98 2 3 C1.01 3 0.02 3 -1 3 C-1 3.66 -1 4.32 -1 5 C-0.34 5.33 0.32 5.66 1 6 C0.0925 6.268125 -0.815 6.53625 -1.75 6.8125 C-4.71471963 7.89576294 -6.6169754 8.98359457 -9 11 C-8.25 8.5625 -8.25 8.5625 -7 6 C-4.9375 5.375 -4.9375 5.375 -3 5 C-2.67 4.01 -2.34 3.02 -2 2 C-1.34 2 -0.68 2 0 2 C0 1.34 0 0.68 0 0 Z " fill="#FFFFFF" transform="translate(45,60)"/>
<path d="M0 0 C4.79016959 2.23462006 8.98745115 4.48901975 13 8 C12.67 8.66 12.34 9.32 12 10 C10.18116422 8.90630138 8.37009022 7.79968608 6.5625 6.6875 C5.55316406 6.07261719 4.54382813 5.45773438 3.50390625 4.82421875 C1 3 1 3 0 0 Z " fill="#DDE8E6" transform="translate(284,54)"/>
<path d="M0 0 C6.4084507 -0.49295775 6.4084507 -0.49295775 9.25 1.875 C9.8275 2.57625 10.405 3.2775 11 4 C11.99 4.66 12.98 5.32 14 6 C13.67 6.66 13.34 7.32 13 8 C8.71 5.69 4.42 3.38 0 1 C0 0.67 0 0.34 0 0 Z " fill="#62EB9E" transform="translate(277,54)"/>
<path d="M0 0 C0.66 0 1.32 0 2 0 C2.33 0.66 2.66 1.32 3 2 C3.66 1.67 4.32 1.34 5 1 C5 3.31 5 5.62 5 8 C4.01 7.67 3.02 7.34 2 7 C2 6.34 2 5.68 2 5 C1.34 5 0.68 5 0 5 C-0.5625 3.0625 -0.5625 3.0625 -1 1 C-0.67 0.67 -0.34 0.34 0 0 Z " fill="#FFFFFF" transform="translate(42,203)"/>
<path d="M0 0 C2.52893294 2.34160457 4.73354191 4.82152732 6.8125 7.5625 C7.47185547 8.43068359 7.47185547 8.43068359 8.14453125 9.31640625 C8.56798828 10.14978516 8.56798828 10.14978516 9 11 C8.67 11.99 8.34 12.98 8 14 C6.65804628 12.23569031 5.32668332 10.4633209 4 8.6875 C3.2575 7.70136719 2.515 6.71523437 1.75 5.69921875 C0 3 0 3 0 0 Z " fill="#3A9DEB" transform="translate(43,190)"/>
<path d="M0 0 C0.99 0.33 1.98 0.66 3 1 C3.50423019 6.29441695 2.18923033 8.81413519 -1 13 C-1.33 12.34 -1.66 11.68 -2 11 C-1.690625 10.2575 -1.38125 9.515 -1.0625 8.75 C0.13278785 5.65631379 0.15290981 3.28756092 0 0 Z " fill="#70D77B" transform="translate(214,178)"/>
<path d="M0 0 C5.625 -0.25 5.625 -0.25 9 2 C8.67 3.32 8.34 4.64 8 6 C6.66402348 5.19185349 5.331275 4.37836819 4 3.5625 C3.2575 3.11003906 2.515 2.65757812 1.75 2.19140625 C1.1725 1.79824219 0.595 1.40507812 0 1 C0 0.67 0 0.34 0 0 Z " fill="#B0E7A8" transform="translate(159,299)"/>
<path d="M0 0 C0.66 0 1.32 0 2 0 C1.67 1.65 1.34 3.3 1 5 C-0.65 4.67 -2.3 4.34 -4 4 C-4.33 4.99 -4.66 5.98 -5 7 C-5.66 7 -6.32 7 -7 7 C-6.67 5.68 -6.34 4.36 -6 3 C-4.35 3 -2.7 3 -1 3 C-0.67 2.01 -0.34 1.02 0 0 Z " fill="#FFFFFF" transform="translate(201,47)"/>
<path d="M0 0 C1.74166645 3.23452341 3.08977798 6.43496376 4 10 C3.01 11.485 3.01 11.485 2 13 C1.34 12.67 0.68 12.34 0 12 C-0.44921875 9.53125 -0.44921875 9.53125 -0.6875 6.5 C-0.77386719 5.4996875 -0.86023438 4.499375 -0.94921875 3.46875 C-0.96597656 2.6540625 -0.98273437 1.839375 -1 1 C-0.67 0.67 -0.34 0.34 0 0 Z " fill="#5695EB" transform="translate(26,154)"/>
<path d="M0 0 C4.41031645 0.50888267 6.89327599 3.03449072 10 6 C10 6.99 10 7.98 10 9 C9.34 9 8.68 9 8 9 C6.64613064 7.34997172 5.31321858 5.6825613 4 4 C3.34 3.67 2.68 3.34 2 3 C2 2.34 2 1.68 2 1 C1.34 0.67 0.68 0.34 0 0 Z " fill="#FFFFFF" transform="translate(97,258)"/>
<path d="M0 0 C0.66 0.33 1.32 0.66 2 1 C2 4.3 2 7.6 2 11 C1.34 11 0.68 11 0 11 C-1.05404945 7.01803543 -0.84098656 4.01804691 0 0 Z " fill="#FFFFFF" transform="translate(27,174)"/>
<path d="M0 0 C-2.26395586 2.26395586 -4.04297898 2.83094518 -7 4 C-8.6829392 4.97236487 -10.35443434 5.96564444 -12 7 C-10.95724749 3.7558811 -9.38759509 2.39805336 -6.5625 0.6875 C-3 -1 -3 -1 0 0 Z " fill="#D8F8FC" transform="translate(202,56)"/>
<path d="M0 0 C1.2375 0.185625 2.475 0.37125 3.75 0.5625 C6.76279577 0.94711223 9.10010827 1.0874594 12 0 C10.8125 2 10.8125 2 9 4 C6.5625 4.5 6.5625 4.5 4 4 C1.6875 2 1.6875 2 0 0 Z " fill="#DBEBD7" transform="translate(168,305)"/>
<path d="M0 0 C0.66 0.33 1.32 0.66 2 1 C-0.64 3.64 -3.28 6.28 -6 9 C-6.33 8.01 -6.66 7.02 -7 6 C-4.69 4.02 -2.38 2.04 0 0 Z " fill="#DDE5F9" transform="translate(49,64)"/>
<path d="M0 0 C3.43927579 1.2419607 6.25207819 2.55740284 9 5 C9 5.66 9 6.32 9 7 C9.66 7.33 10.32 7.66 11 8 C7.63833578 7.40501518 5.78840322 6.25635842 3.25 4 C2.63640625 3.46375 2.0228125 2.9275 1.390625 2.375 C0.93171875 1.92125 0.4728125 1.4675 0 1 C0 0.67 0 0.34 0 0 Z " fill="#DCEFE8" transform="translate(117,269)"/>
<path d="M0 0 C3.59905908 0.55550695 4.99909799 1.74887248 7.25 4.5625 C8.03117187 5.52349609 8.03117187 5.52349609 8.828125 6.50390625 C9.21484375 6.99761719 9.6015625 7.49132812 10 8 C4.98886765 6.5682479 3.05530451 4.01554307 0 0 Z " fill="#E8F8F9" transform="translate(81,239)"/>
<path d="M0 0 C0.66 0 1.32 0 2 0 C3.38938077 1.96147874 4.7260411 3.96166576 6 6 C4.02 6 2.04 6 0 6 C-1 3 -1 3 0 0 Z " fill="#F3F3F3" transform="translate(39,195)"/>
<path d="M0 0 C3.33333333 1.66666667 6.66666667 3.33333333 10 5 C10 5.33 10 5.66 10 6 C3.52443609 5.38909774 3.52443609 5.38909774 1.0625 3.5625 C0 2 0 2 0 0 Z " fill="#50CBB3" transform="translate(151,185)"/>
<path d="M0 0 C0.66 0.33 1.32 0.66 2 1 C-0.97 4.96 -0.97 4.96 -4 9 C-4.99 8.67 -5.98 8.34 -7 8 C-4.69 5.36 -2.38 2.72 0 0 Z " fill="#60D48B" transform="translate(204,177)"/>
<path d="M0 0 C0.66 0.33 1.32 0.66 2 1 C-0.475 5.455 -0.475 5.455 -3 10 C-4 6 -4 6 -2.0625 2.75 C-1.381875 1.8425 -0.70125 0.935 0 0 Z " fill="#88E57D" transform="translate(265,127)"/>
<path d="M0 0 C2.46800047 1.15173355 4.04783565 2.04783565 6 4 C5.625 6.125 5.625 6.125 5 8 C0 2.25 0 2.25 0 0 Z " fill="#86E1C7" transform="translate(110,261)"/>
<path d="M0 0 C0.66 0 1.32 0 2 0 C0.44499019 3.81684226 -2.03595495 6.19195732 -5 9 C-4.42676569 5.13066838 -2.61046448 2.84777943 0 0 Z " fill="#E7E8CC" transform="translate(296,205)"/>
<path d="M0 0 C2.39256506 1.19628253 2.79843378 2.12565265 4.0625 4.4375 C4.40410156 5.05496094 4.74570313 5.67242187 5.09765625 6.30859375 C5.74921553 7.52991482 6.38094352 8.76188703 7 10 C3.64501065 8.61172854 1.84949545 7.14414226 0 4 C0 2.68 0 1.36 0 0 Z " fill="#3DA4ED" transform="translate(86,130)"/>
<path d="M0 0 C2.875 0.3125 2.875 0.3125 6 1 C6.66 1.99 7.32 2.98 8 4 C7.67 4.99 7.34 5.98 7 7 C6.67 6.01 6.34 5.02 6 4 C4.34795544 3.29788106 2.68076231 2.63028587 1 2 C0.67 1.34 0.34 0.68 0 0 Z " fill="#FFFFFF" transform="translate(159,59)"/>
<path d="M0 0 C0.66 0.33 1.32 0.66 2 1 C-1.96 4.465 -1.96 4.465 -6 8 C-6.66 7.67 -7.32 7.34 -8 7 C-5.36 4.69 -2.72 2.38 0 0 Z " fill="#F8FBEA" transform="translate(245,257)"/>
<path d="M0 0 C0.99 0.33 1.98 0.66 3 1 C1.90554162 1.86657116 0.79902219 2.71792724 -0.3125 3.5625 C-0.92738281 4.03816406 -1.54226563 4.51382813 -2.17578125 5.00390625 C-2.77777344 5.33261719 -3.37976563 5.66132813 -4 6 C-4.99 5.67 -5.98 5.34 -7 5 C-2.25 1.125 -2.25 1.125 0 0 Z " fill="#88DD58" transform="translate(262,151)"/>
<path d="M0 0 C0.33 0 0.66 0 1 0 C1.24042276 4.08718695 0.42258812 7.17679443 -1 11 C-1.66 11 -2.32 11 -3 11 C-2.53199289 6.94393835 -2.12046792 3.53411321 0 0 Z " fill="#F5E440" transform="translate(326,142)"/>
<path d="M0 0 C0.66 0.33 1.32 0.66 2 1 C1.21625 1.598125 0.4325 2.19625 -0.375 2.8125 C-3.14574323 4.91085249 -3.14574323 4.91085249 -5 8 C-5.33 6.68 -5.66 5.36 -6 4 C-4.02 2.68 -2.04 1.36 0 0 Z " fill="#A7E15F" transform="translate(225,271)"/>
<path d="M0 0 C0.33 0 0.66 0 1 0 C0.25 6.75 0.25 6.75 -2 9 C-2.66 9 -3.32 9 -4 9 C-2.80100302 5.9168649 -1.52299523 2.93720508 0 0 Z " fill="#63C9E2" transform="translate(142,135)"/>
<path d="M0 0 C3.36591866 1.44253657 5.51047079 3.33264727 8 6 C7.67 6.66 7.34 7.32 7 8 C5.8274869 7.04882866 4.66212985 6.08882991 3.5 5.125 C2.8503125 4.59132813 2.200625 4.05765625 1.53125 3.5078125 C1.0259375 3.01023437 0.520625 2.51265625 0 2 C0 1.34 0 0.68 0 0 Z " fill="#D9EBDC" transform="translate(298,64)"/>
<path d="M0 0 C3.40312738 1.05875074 6.01353231 2.00902154 9 4 C8.67 4.66 8.34 5.32 8 6 C5.36 4.68 2.72 3.36 0 2 C0 1.34 0 0.68 0 0 Z " fill="#B1CCDB" transform="translate(142,53)"/>
<path d="M0 0 C2.97 0.99 5.94 1.98 9 3 C9 3.66 9 4.32 9 5 C7.68428397 4.7452486 6.37239624 4.47065859 5.0625 4.1875 C4.33160156 4.03667969 3.60070312 3.88585938 2.84765625 3.73046875 C2.23792969 3.48941406 1.62820313 3.24835937 1 3 C0.67 2.01 0.34 1.02 0 0 Z " fill="#C7DFD0" transform="translate(274,50)"/>
<path d="M0 0 C-1.39332574 3.36720387 -2.9789286 4.9859524 -6 7 C-6 4 -6 4 -4.125 1.8125 C-2 0 -2 0 0 0 Z " fill="#FAFDE3" transform="translate(274,232)"/>
<path d="M0 0 C1.231394 3.69418201 0.64432764 6.2056261 0 10 C-2 8 -2 8 -2.25 5 C-2 2 -2 2 0 0 Z " fill="#3C97F1" transform="translate(74,126)"/>
<path d="M0 0 C0.66 0.66 1.32 1.32 2 2 C-0.31 3.65 -2.62 5.3 -5 7 C-5 6.01 -5 5.02 -5 4 C-2.5 1.8125 -2.5 1.8125 0 0 Z " fill="#ECD6D8" transform="translate(236,264)"/>
<path d="M0 0 C0.99 0.33 1.98 0.66 3 1 C1.72553565 3.5489287 0.53636507 3.80641644 -2 5 C-2.99 5.66 -3.98 6.32 -5 7 C-5 6.01 -5 5.02 -5 4 C-2.6875 1.75 -2.6875 1.75 0 0 Z " fill="#B6D84E" transform="translate(265,237)"/>
<path d="M0 0 C5.53846154 0.61538462 5.53846154 0.61538462 7.875 2.5625 C8.431875 3.2740625 8.431875 3.2740625 9 4 C3.46153846 3.38461538 3.46153846 3.38461538 1.125 1.4375 C0.75375 0.963125 0.3825 0.48875 0 0 Z " fill="#4DCFA1" transform="translate(150,201)"/>
<path d="M0 0 C1.485 0.99 1.485 0.99 3 2 C3 2.66 3 3.32 3 4 C4.32 4.66 5.64 5.32 7 6 C6.01 6.33 5.02 6.66 4 7 C2 5.1875 2 5.1875 0 3 C0 2.01 0 1.02 0 0 Z " fill="#60D694" transform="translate(220,135)"/>
<path d="M0 0 C0.99 0.495 0.99 0.495 2 1 C2 3.64 2 6.28 2 9 C1.34 9 0.68 9 0 9 C0 6.03 0 3.06 0 0 Z " fill="#FFFFFF" transform="translate(12,122)"/>
<path d="M0 0 C0.66 0 1.32 0 2 0 C2 0.66 2 1.32 2 2 C2.66 2 3.32 2 4 2 C4.33 3.98 4.66 5.96 5 8 C4.01 6.68 3.02 5.36 2 4 C1.01 4.495 1.01 4.495 0 5 C0 3.35 0 1.7 0 0 Z " fill="#FEFEFF" transform="translate(24,84)"/>
<path d="M0 0 C0.66 0 1.32 0 2 0 C2.125 3.375 2.125 3.375 2 7 C1.34 7.66 0.68 8.32 0 9 C0 6.03 0 3.06 0 0 Z " fill="#FFFFFF" transform="translate(18,99)"/>
<path d="M0 0 C0 0.99 0 1.98 0 3 C-1.65 3.33 -3.3 3.66 -5 4 C-5 3.01 -5 2.02 -5 1 C-3 0 -3 0 0 0 Z " fill="#FFFFFF" transform="translate(71,231)"/>
<path d="M0 0 C0.99 0.99 1.98 1.98 3 3 C1.68 3 0.36 3 -1 3 C-1 3.66 -1 4.32 -1 5 C-1.66 5 -2.32 5 -3 5 C-3 4.01 -3 3.02 -3 2 C-2.01 1.34 -1.02 0.68 0 0 Z " fill="#ECECEC" transform="translate(66,227)"/>
<path d="M0 0 C0.66 0 1.32 0 2 0 C2 1.98 2 3.96 2 6 C1.01 6.495 1.01 6.495 0 7 C0 4.69 0 2.38 0 0 Z " fill="#FFFFFF" transform="translate(21,92)"/>
<path d="M0 0 C1.32 0.33 2.64 0.66 4 1 C2.68 1.33 1.36 1.66 0 2 C0 2.66 0 3.32 0 4 C-0.66 4 -1.32 4 -2 4 C-1.34 2.68 -0.68 1.36 0 0 Z " fill="#FFFFFF" transform="translate(74,237)"/>
<path d="M0 0 C1.32 0 2.64 0 4 0 C4 0.99 4 1.98 4 3 C2.68 3 1.36 3 0 3 C0 2.01 0 1.02 0 0 Z " fill="#FFFFFF" transform="translate(176,63)"/>
<path d="M0 0 C0.66 0 1.32 0 2 0 C2 0.66 2 1.32 2 2 C2.66 2.33 3.32 2.66 4 3 C1.36 3 -1.28 3 -4 3 C-2.68 2.67 -1.36 2.34 0 2 C0 1.34 0 0.68 0 0 Z " fill="#FFFFFF" transform="translate(273,42)"/>
<path d="M0 0 C0.66 0 1.32 0 2 0 C2 0.99 2 1.98 2 3 C2.99 3.33 3.98 3.66 5 4 C3.35 4 1.7 4 0 4 C0 2.68 0 1.36 0 0 Z " fill="#FFFFFF" transform="translate(93,258)"/>
<path d="M0 0 C0.66 0 1.32 0 2 0 C2.33 0.99 2.66 1.98 3 3 C2.67 3.66 2.34 4.32 2 5 C1.34 5 0.68 5 0 5 C0 3.35 0 1.7 0 0 Z " fill="#FFFFFF" transform="translate(131,42)"/>
<path d="M0 0 C0.66 0 1.32 0 2 0 C2 0.66 2 1.32 2 2 C2.66 2.33 3.32 2.66 4 3 C3.01 3.33 2.02 3.66 1 4 C0.34 3.34 -0.32 2.68 -1 2 C-0.67 1.34 -0.34 0.68 0 0 Z " fill="#FFFFFF" transform="translate(174,66)"/>
<path d="M0 0 C0.99 0 1.98 0 3 0 C3 0.99 3 1.98 3 3 C1.68 2.67 0.36 2.34 -1 2 C-0.67 1.34 -0.34 0.68 0 0 Z " fill="#FFFFFF" transform="translate(206,45)"/>
<path d="M0 0 C0.66 0.66 1.32 1.32 2 2 C1.67 2.66 1.34 3.32 1 4 C0.34 4 -0.32 4 -1 4 C-1.33 3.01 -1.66 2.02 -2 1 C-1.34 0.67 -0.68 0.34 0 0 Z " fill="#E2E2E2" transform="translate(124,278)"/>
<path d="M0 0 C0.66 0 1.32 0 2 0 C2 0.99 2 1.98 2 3 C1.01 3 0.02 3 -1 3 C-0.67 2.01 -0.34 1.02 0 0 Z " fill="#FFFFFF" transform="translate(171,312)"/>
<path d="M0 0 C0.66 0 1.32 0 2 0 C2 1.32 2 2.64 2 4 C1.34 4 0.68 4 0 4 C0 2.68 0 1.36 0 0 Z " fill="#FFFFFF" transform="translate(60,225)"/>
<path d="M0 0 C0.66 0 1.32 0 2 0 C2 1.32 2 2.64 2 4 C1.34 4 0.68 4 0 4 C0 2.68 0 1.36 0 0 Z " fill="#FFFFFF" transform="translate(26,74)"/>
<path d="M0 0 C0.33 1.32 0.66 2.64 1 4 C0.34 4 -0.32 4 -1 4 C-1.33 3.01 -1.66 2.02 -2 1 C-1.34 0.67 -0.68 0.34 0 0 Z " fill="#FFFFFF" transform="translate(313,72)"/>
<path d="M0 0 C0.99 0 1.98 0 3 0 C2.67 0.99 2.34 1.98 2 3 C1.34 3 0.68 3 0 3 C0 2.01 0 1.02 0 0 Z " fill="#FFFFFF" transform="translate(311,66)"/>
<path d="M0 0 C0.99 0 1.98 0 3 0 C2.67 0.99 2.34 1.98 2 3 C1.34 3 0.68 3 0 3 C0 2.01 0 1.02 0 0 Z " fill="#FFFFFF" transform="translate(308,63)"/>
<path d="M0 0 C0.99 0.33 1.98 0.66 3 1 C3 1.66 3 2.32 3 3 C2.01 3 1.02 3 0 3 C0 2.01 0 1.02 0 0 Z " fill="#FFFFFF" transform="translate(290,53)"/>
<path d="M0 0 C0.99 0.33 1.98 0.66 3 1 C3 1.66 3 2.32 3 3 C2.01 3 1.02 3 0 3 C0 2.01 0 1.02 0 0 Z " fill="#FFFFFF" transform="translate(152,53)"/>
<path d="M0 0 C0.99 0 1.98 0 3 0 C2.67 0.99 2.34 1.98 2 3 C1.34 3 0.68 3 0 3 C0 2.01 0 1.02 0 0 Z " fill="#FFFFFF" transform="translate(263,39)"/>
<path d="M0 0 C0.99 0 1.98 0 3 0 C3 0.99 3 1.98 3 3 C2.34 3 1.68 3 1 3 C0.67 2.01 0.34 1.02 0 0 Z " fill="#FFFFFF" transform="translate(119,276)"/>
<path d="M0 0 C0.66 0 1.32 0 2 0 C2 0.99 2 1.98 2 3 C1.34 3 0.68 3 0 3 C0 2.01 0 1.02 0 0 Z " fill="#FFFFFF" transform="translate(81,247)"/>
<path d="M0 0 C0.66 0 1.32 0 2 0 C2 0.99 2 1.98 2 3 C1.34 3 0.68 3 0 3 C0 2.01 0 1.02 0 0 Z " fill="#FFFFFF" transform="translate(78,244)"/>
<path d="M0 0 C0.66 0 1.32 0 2 0 C2 0.99 2 1.98 2 3 C1.34 3 0.68 3 0 3 C0 2.01 0 1.02 0 0 Z " fill="#FFFFFF" transform="translate(75,241)"/>
<path d="M0 0 C0.99 0 1.98 0 3 0 C3 0.66 3 1.32 3 2 C2.01 2 1.02 2 0 2 C0 1.34 0 0.68 0 0 Z " fill="#FFFFFF" transform="translate(71,234)"/>
<path d="M0 0 C0.66 0 1.32 0 2 0 C2 0.99 2 1.98 2 3 C1.34 3 0.68 3 0 3 C0 2.01 0 1.02 0 0 Z " fill="#FFFFFF" transform="translate(305,60)"/>
<path d="M0 0 C0.66 0 1.32 0 2 0 C2 0.99 2 1.98 2 3 C1.34 3 0.68 3 0 3 C0 2.01 0 1.02 0 0 Z " fill="#FFFFFF" transform="translate(122,39)"/>
<path d="M0 0 C0.66 0 1.32 0 2 0 C2 0.66 2 1.32 2 2 C1.01 1.67 0.02 1.34 -1 1 C-0.67 0.67 -0.34 0.34 0 0 Z " fill="#FFFFFF" transform="translate(144,293)"/>
<path d="M0 0 C0.33 0.99 0.66 1.98 1 3 C0.34 3 -0.32 3 -1 3 C-0.67 2.01 -0.34 1.02 0 0 Z " fill="#FFFFFF" transform="translate(121,280)"/>
<path d="M0 0 C0.99 0.33 1.98 0.66 3 1 C2.01 1.33 1.02 1.66 0 2 C0 1.34 0 0.68 0 0 Z " fill="#FFFFFF" transform="translate(87,248)"/>
<path d="M0 0 C0.99 0.99 1.98 1.98 3 3 C2.01 2.67 1.02 2.34 0 2 C0 1.34 0 0.68 0 0 Z " fill="#FFFFFF" transform="translate(81,242)"/>
<path d="M0 0 C0.99 0.33 1.98 0.66 3 1 C2.01 1.33 1.02 1.66 0 2 C0 1.34 0 0.68 0 0 Z " fill="#FFFFFF" transform="translate(63,225)"/>
<path d="M0 0 C0.33 0.99 0.66 1.98 1 3 C0.34 3 -0.32 3 -1 3 C-0.67 2.01 -0.34 1.02 0 0 Z " fill="#FFFFFF" transform="translate(289,219)"/>
<path d="M0 0 C0.99 0.33 1.98 0.66 3 1 C2.01 1.33 1.02 1.66 0 2 C0 1.34 0 0.68 0 0 Z " fill="#FFFFFF" transform="translate(48,207)"/>
<path d="M0 0 C0.99 0.33 1.98 0.66 3 1 C2.34 1.66 1.68 2.32 1 3 C0.67 2.01 0.34 1.02 0 0 Z " fill="#FFFFFF" transform="translate(26,80)"/>
<path d="M0 0 C1.65 0 3.3 0 5 0 C5 0.33 5 0.66 5 1 C3.35 1 1.7 1 0 1 C0 0.67 0 0.34 0 0 Z " fill="#FFFFFF" transform="translate(114,38)"/>
<path d="M0 0 C0.66 0 1.32 0 2 0 C2 0.66 2 1.32 2 2 C1.34 2 0.68 2 0 2 C0 1.34 0 0.68 0 0 Z " fill="#FFFFFF" transform="translate(186,307)"/>
<path d="M0 0 C0.66 0 1.32 0 2 0 C2 0.66 2 1.32 2 2 C1.34 2 0.68 2 0 2 C0 1.34 0 0.68 0 0 Z " fill="#FFFFFF" transform="translate(132,289)"/>
<path d="M0 0 C0.66 0 1.32 0 2 0 C2 0.66 2 1.32 2 2 C1.34 2 0.68 2 0 2 C0 1.34 0 0.68 0 0 Z " fill="#FFFFFF" transform="translate(126,280)"/>
<path d="M0 0 C0.66 0 1.32 0 2 0 C2 0.66 2 1.32 2 2 C1.34 2 0.68 2 0 2 C0 1.34 0 0.68 0 0 Z " fill="#FFFFFF" transform="translate(251,256)"/>
<path d="M0 0 C0.66 0 1.32 0 2 0 C2 0.66 2 1.32 2 2 C1.34 2 0.68 2 0 2 C0 1.34 0 0.68 0 0 Z " fill="#FFFFFF" transform="translate(69,236)"/>
<path d="M0 0 C0.66 0 1.32 0 2 0 C2 0.66 2 1.32 2 2 C1.34 2 0.68 2 0 2 C0 1.34 0 0.68 0 0 Z " fill="#FFFFFF" transform="translate(275,234)"/>
<path d="M0 0 C0.66 0 1.32 0 2 0 C2 0.66 2 1.32 2 2 C1.34 2 0.68 2 0 2 C0 1.34 0 0.68 0 0 Z " fill="#FFFFFF" transform="translate(284,231)"/>
<path d="M0 0 C0.66 0 1.32 0 2 0 C2 0.66 2 1.32 2 2 C1.34 2 0.68 2 0 2 C0 1.34 0 0.68 0 0 Z " fill="#FFFFFF" transform="translate(291,228)"/>
<path d="M0 0 C0.66 0 1.32 0 2 0 C2 0.66 2 1.32 2 2 C1.34 2 0.68 2 0 2 C0 1.34 0 0.68 0 0 Z " fill="#FFFFFF" transform="translate(294,222)"/>
<path d="M0 0 C0.66 0 1.32 0 2 0 C2 0.66 2 1.32 2 2 C1.34 2 0.68 2 0 2 C0 1.34 0 0.68 0 0 Z " fill="#FFFFFF" transform="translate(296,216)"/>
<path d="M0 0 C0.66 0 1.32 0 2 0 C2 0.66 2 1.32 2 2 C1.34 2 0.68 2 0 2 C0 1.34 0 0.68 0 0 Z " fill="#FFFFFF" transform="translate(300,205)"/>
<path d="M0 0 C0.33 0.99 0.66 1.98 1 3 C0.34 2.67 -0.32 2.34 -1 2 C-0.67 1.34 -0.34 0.68 0 0 Z " fill="#FFFFFF" transform="translate(303,201)"/>
<path d="M0 0 C0.66 0 1.32 0 2 0 C2 0.66 2 1.32 2 2 C1.34 2 0.68 2 0 2 C0 1.34 0 0.68 0 0 Z " fill="#FFFFFF" transform="translate(12,138)"/>
<path d="M0 0 C0.66 0 1.32 0 2 0 C2 0.66 2 1.32 2 2 C1.34 2 0.68 2 0 2 C0 1.34 0 0.68 0 0 Z " fill="#FFFFFF" transform="translate(12,135)"/>
<path d="M0 0 C0.66 0 1.32 0 2 0 C2 0.66 2 1.32 2 2 C1.34 2 0.68 2 0 2 C0 1.34 0 0.68 0 0 Z " fill="#FFFFFF" transform="translate(320,78)"/>
<path d="M0 0 C0.99 0.33 1.98 0.66 3 1 C2.01 1 1.02 1 0 1 C0 0.67 0 0.34 0 0 Z " fill="#BFBFBF" transform="translate(38,70)"/>
<path d="M0 0 C0.66 0 1.32 0 2 0 C2 0.66 2 1.32 2 2 C1.34 2 0.68 2 0 2 C0 1.34 0 0.68 0 0 Z " fill="#FFFFFF" transform="translate(314,69)"/>
<path d="M0 0 C0.99 0.33 1.98 0.66 3 1 C2.01 1 1.02 1 0 1 C0 0.67 0 0.34 0 0 Z " fill="#7F7F7F" transform="translate(168,67)"/>
<path d="M0 0 C0.66 0 1.32 0 2 0 C2 0.66 2 1.32 2 2 C1.34 2 0.68 2 0 2 C0 1.34 0 0.68 0 0 Z " fill="#FFFFFF" transform="translate(260,42)"/>
<path d="M0 0 C0.66 0 1.32 0 2 0 C2 0.66 2 1.32 2 2 C1.34 2 0.68 2 0 2 C0 1.34 0 0.68 0 0 Z " fill="#FFFFFF" transform="translate(119,42)"/>
<path d="M0 0 C0.66 0 1.32 0 2 0 C2 0.66 2 1.32 2 2 C1.34 2 0.68 2 0 2 C0 1.34 0 0.68 0 0 Z " fill="#FFFFFF" transform="translate(267,39)"/>
<path d="M0 0 C0.33 0.66 0.66 1.32 1 2 C0.34 1.67 -0.32 1.34 -1 1 C-0.67 0.67 -0.34 0.34 0 0 Z " fill="#FFFFFF" transform="translate(255,253)"/>
<path d="M0 0 C0.33 0.66 0.66 1.32 1 2 C0.34 1.67 -0.32 1.34 -1 1 C-0.67 0.67 -0.34 0.34 0 0 Z " fill="#FFFFFF" transform="translate(258,250)"/>
<path d="M0 0 C0.66 0.66 1.32 1.32 2 2 C1.34 2 0.68 2 0 2 C0 1.34 0 0.68 0 0 Z " fill="#FFFFFF" transform="translate(84,245)"/>
<path d="M0 0 C0.66 0.66 1.32 1.32 2 2 C1.34 2 0.68 2 0 2 C0 1.34 0 0.68 0 0 Z " fill="#FFFFFF" transform="translate(78,239)"/>
<path d="M0 0 C0.99 0.495 0.99 0.495 2 1 C1.01 1.495 1.01 1.495 0 2 C0 1.34 0 0.68 0 0 Z " fill="#FFFFFF" transform="translate(278,237)"/>
<path d="M0 0 C0.99 0.495 0.99 0.495 2 1 C1.01 1.495 1.01 1.495 0 2 C0 1.34 0 0.68 0 0 Z " fill="#FFFFFF" transform="translate(285,223)"/>
<path d="M0 0 C0.66 0 1.32 0 2 0 C1.67 0.66 1.34 1.32 1 2 C0.67 1.34 0.34 0.68 0 0 Z " fill="#AAAAAA" transform="translate(60,222)"/>
<path d="M0 0 C0.33 0.66 0.66 1.32 1 2 C0.34 1.67 -0.32 1.34 -1 1 C-0.67 0.67 -0.34 0.34 0 0 Z " fill="#FFFFFF" transform="translate(291,217)"/>
<path d="M0 0 C0.66 0 1.32 0 2 0 C1.67 0.66 1.34 1.32 1 2 C0.67 1.34 0.34 0.68 0 0 Z " fill="#FFFFFF" transform="translate(332,126)"/>
<path d="M0 0 C0.66 0.66 1.32 1.32 2 2 C1.34 2 0.68 2 0 2 C0 1.34 0 0.68 0 0 Z " fill="#FFFFFF" transform="translate(327,103)"/>
<path d="M0 0 C3 1 3 1 3 1 Z " fill="#FFFFFF" transform="translate(332,98)"/>
<path d="M0 0 C0.99 0.495 0.99 0.495 2 1 C1.01 1.495 1.01 1.495 0 2 C0 1.34 0 0.68 0 0 Z " fill="#FFFFFF" transform="translate(24,90)"/>
<path d="M0 0 C3 1 3 1 3 1 Z " fill="#FFFFFF" transform="translate(302,59)"/>
<path d="M0 0 C3 1 3 1 3 1 Z " fill="#FFFFFF" transform="translate(210,44)"/>
<path d="M0 0 C3 1 3 1 3 1 Z " fill="#FFFFFF" transform="translate(72,44)"/>
<path d="M0 0 C2 1 2 1 2 1 Z " fill="#FFFFFF" transform="translate(141,297)"/>
<path d="M0 0 C2 1 2 1 2 1 Z " fill="#FFFFFF" transform="translate(116,279)"/>
<path d="M0 0 C2 1 2 1 2 1 Z " fill="#FFFFFF" transform="translate(114,276)"/>
<path d="M0 0 C2 1 2 1 2 1 Z " fill="#FFFFFF" transform="translate(102,270)"/>
<path d="M0 0 C2 1 2 1 2 1 Z " fill="#FFFFFF" transform="translate(102,267)"/>
<path d="M0 0 C2 1 2 1 2 1 Z " fill="#FFFFFF" transform="translate(248,264)"/>
<path d="M0 0 C2 1 2 1 2 1 Z " fill="#FFFFFF" transform="translate(99,264)"/>
<path d="M0 0 C2 1 2 1 2 1 Z " fill="#FFFFFF" transform="translate(258,261)"/>
<path d="M0 0 C2 1 2 1 2 1 Z " fill="#FFFFFF" transform="translate(261,258)"/>
<path d="M0 0 C2 1 2 1 2 1 Z " fill="#FFFFFF" transform="translate(258,258)"/>
<path d="M0 0 C2 1 2 1 2 1 Z " fill="#FFFFFF" transform="translate(267,252)"/>
<path d="M0 0 C2 1 2 1 2 1 Z " fill="#FFFFFF" transform="translate(84,252)"/>
<path d="M0 0 C2 1 2 1 2 1 Z " fill="#FFFFFF" transform="translate(273,246)"/>
<path d="M0 0 C2 1 2 1 2 1 Z " fill="#FFFFFF" transform="translate(269,246)"/>
<path d="M0 0 C2 1 2 1 2 1 Z " fill="#FFFFFF" transform="translate(272,243)"/>
<path d="M0 0 C2 1 2 1 2 1 Z " fill="#FFFFFF" transform="translate(279,240)"/>
<path d="" fill="#FFFFFF" transform="translate(0,0)"/>
<path d="M0 0 C2 1 2 1 2 1 Z " fill="#FFFFFF" transform="translate(312,188)"/>
<path d="M0 0 C2 1 2 1 2 1 Z " fill="#FFFFFF" transform="translate(329,161)"/>
<path d="M0 0 C2 1 2 1 2 1 Z " fill="#FFFFFF" transform="translate(336,104)"/>
<path d="M0 0 C2 1 2 1 2 1 Z " fill="#FFFFFF" transform="translate(330,89)"/>
<path d="" fill="#FFFFFF" transform="translate(0,0)"/>
<path d="" fill="#FFFFFF" transform="translate(0,0)"/>
<path d="M0 0 C2 1 2 1 2 1 Z " fill="#FFFFFF" transform="translate(32,68)"/>
<path d="M0 0 C2 1 2 1 2 1 Z " fill="#FFFFFF" transform="translate(38,62)"/>
<path d="M0 0 C2 1 2 1 2 1 Z " fill="#FFFFFF" transform="translate(299,56)"/>
<path d="M0 0 C2 1 2 1 2 1 Z " fill="#FFFFFF" transform="translate(155,56)"/>
<path d="M0 0 C2 1 2 1 2 1 Z " fill="#FFFFFF" transform="translate(284,50)"/>
<path d="M0 0 C2 1 2 1 2 1 Z " fill="#FFFFFF" transform="translate(146,50)"/>
<path d="M0 0 C2 1 2 1 2 1 Z " fill="#FFFFFF" transform="translate(278,47)"/>
<path d="M0 0 C2 1 2 1 2 1 Z " fill="#FFFFFF" transform="translate(137,44)"/>
<path d="" fill="#FFFFFF" transform="translate(0,0)"/>
<path d="" fill="#FFFFFF" transform="translate(0,0)"/>
<path d="" fill="#000000" transform="translate(0,0)"/>
<path d="" fill="#000000" transform="translate(0,0)"/>
<path d="" fill="#000000" transform="translate(0,0)"/>
<path d="" fill="#000000" transform="translate(0,0)"/>
<path d="" fill="#FFFFFF" transform="translate(0,0)"/>
<path d="" fill="#FFFFFF" transform="translate(0,0)"/>
<path d="" fill="#000000" transform="translate(0,0)"/>
<path d="" fill="#000000" transform="translate(0,0)"/>
<path d="" fill="#FFFFFF" transform="translate(0,0)"/>
<path d="" fill="#FFFFFF" transform="translate(0,0)"/>
<path d="" fill="#FFFFFF" transform="translate(0,0)"/>
<path d="" fill="#FFFFFF" transform="translate(0,0)"/>
<path d="" fill="#FFFFFF" transform="translate(0,0)"/>
<path d="" fill="#FFFFFF" transform="translate(0,0)"/>
<path d="" fill="#FFFFFF" transform="translate(0,0)"/>
<path d="" fill="#000000" transform="translate(0,0)"/>
<path d="" fill="#000000" transform="translate(0,0)"/>
<path d="" fill="#FFFFFF" transform="translate(0,0)"/>
<path d="" fill="#FFFFFF" transform="translate(0,0)"/>
</svg>
